<svg width="40" height="40" viewBox="0 0 40 40" fill="none" xmlns="http://www.w3.org/2000/svg">
<g clip-path="url(#clip0_126_16655)">
<path d="M20 39C30.4934 39 39 30.4934 39 20C39 9.50659 30.4934 1 20 1C9.50659 1 1 9.50659 1 20C1 30.4934 9.50659 39 20 39Z" stroke="white"/>
<path d="M14.552 10.6161C14.499 10.4661 14.435 10.3711 14.36 10.3281C14.285 10.2851 14.147 10.2641 13.944 10.2641H13.464V9.32008H15.368L17.576 15.8161L19.816 9.32008H21.72V10.2641H21.208C21.005 10.2641 20.867 10.2851 20.792 10.3281C20.717 10.3711 20.653 10.4671 20.6 10.6161L18.312 17.0001H16.856L14.552 10.6161ZM25.781 17.2401C25.023 17.2401 24.341 17.0851 23.733 16.7761C23.1324 16.4631 22.633 15.9859 22.293 15.4001C21.941 14.7921 21.765 14.0611 21.765 13.2081C21.765 11.8851 22.111 10.8671 22.805 10.1521C23.509 9.43708 24.474 9.08008 25.701 9.08008C26.373 9.08008 26.933 9.15508 27.381 9.30408C27.8517 9.44866 28.295 9.67034 28.693 9.96008V11.3521H27.525V10.4721C27.2744 10.3291 27.0052 10.2214 26.725 10.1521C26.469 10.0771 26.127 10.0401 25.701 10.0401C24.911 10.0401 24.261 10.3011 23.749 10.8241C23.247 11.3361 22.997 12.1311 22.997 13.2081C22.997 14.2431 23.274 15.0161 23.829 15.5281C24.394 16.0291 25.087 16.2801 25.909 16.2801C26.41 16.2801 26.831 16.2371 27.173 16.1521C27.525 16.0561 27.871 15.9021 28.213 15.6881L28.709 16.4881C28.3081 16.7542 27.8643 16.949 27.397 17.0641C26.949 17.1811 26.41 17.2401 25.781 17.2401ZM13.592 28.0561H14.104C14.307 28.0561 14.451 28.0131 14.536 27.9281C14.621 27.8321 14.664 27.6781 14.664 27.4641V22.8401C14.664 22.6271 14.621 22.4771 14.536 22.3921C14.461 22.3071 14.323 22.2641 14.12 22.2641H13.592V21.3201H15.56L15.816 22.2481C16.029 21.8961 16.301 21.6561 16.632 21.5281C16.973 21.3891 17.4 21.3201 17.912 21.3201H18.552V22.2641H17.848C17.165 22.2641 16.675 22.4191 16.376 22.7281C16.088 23.0271 15.944 23.4961 15.944 24.1361V27.4641C15.944 27.6771 15.987 27.8321 16.072 27.9281C16.157 28.0131 16.302 28.0561 16.504 28.0561H17.016V29.0001H13.592V28.0561ZM22.753 29.2401C21.9 29.2401 21.249 29.0101 20.801 28.5521C20.364 28.0931 20.145 27.4421 20.145 26.6001V22.8401C20.145 22.6371 20.103 22.4931 20.017 22.4081C19.932 22.3121 19.788 22.2641 19.585 22.2641H19.073V21.3201H21.441V26.5841C21.441 27.1711 21.575 27.6031 21.841 27.8801C22.119 28.1471 22.556 28.2801 23.153 28.2801C23.783 28.2801 24.295 28.1041 24.689 27.7521C25.084 27.3891 25.281 26.8671 25.281 26.1841V22.8401C25.281 22.6271 25.239 22.4771 25.153 22.3921C25.079 22.3071 24.94 22.2641 24.737 22.2641H24.209V21.3201H26.561V27.4801C26.561 27.6831 26.604 27.8321 26.689 27.9281C26.785 28.0131 26.935 28.0561 27.137 28.0561H27.633V29.0001H25.665L25.569 27.9441C25.217 28.3921 24.823 28.7231 24.385 28.9361C23.948 29.1391 23.404 29.2401 22.753 29.2401ZM11.032 29.1601C10.755 29.1601 10.515 29.0641 10.312 28.8721C10.2122 28.7779 10.1334 28.6636 10.081 28.5367C10.0286 28.4098 10.0038 28.2733 10.008 28.1361C10.008 27.8061 10.125 27.5281 10.36 27.3041C10.5886 27.0866 10.8926 26.9662 11.208 26.9681C11.538 26.9681 11.789 27.0691 11.96 27.2721C12.141 27.4641 12.232 27.7041 12.232 27.9921C12.232 28.3441 12.115 28.6271 11.88 28.8401C11.645 29.0531 11.363 29.1601 11.032 29.1601Z" fill="white"/>
</g>
<defs>
<clipPath id="clip0_126_16655">
<rect width="40" height="40" fill="white"/>
</clipPath>
</defs>
</svg>
