<svg width="40" height="40" viewBox="0 0 40 40" fill="none" xmlns="http://www.w3.org/2000/svg">
<g clip-path="url(#clip0_126_16652)">
<path d="M28.595 12.46C29.0612 12.5854 29.4862 12.831 29.8276 13.1724C30.169 13.5138 30.4146 13.9388 30.54 14.405C30.998 16.12 31 19.7 31 19.7C31 19.7 31 23.28 30.54 24.996C30.4146 25.4622 30.169 25.8872 29.8276 26.2286C29.4862 26.57 29.0612 26.8156 28.595 26.941C26.88 27.4 20 27.4 20 27.4C20 27.4 13.12 27.4 11.405 26.94C10.9388 26.8146 10.5138 26.569 10.1724 26.2276C9.83104 25.8862 9.58537 25.4612 9.46 24.995C9 23.28 9 19.7 9 19.7C9 19.7 9 16.12 9.46 14.405C9.58537 13.9388 9.83104 13.5138 10.1724 13.1724C10.5138 12.831 10.9388 12.5854 11.405 12.46C13.12 12 20 12 20 12C20 12 26.88 12 28.595 12.46ZM23.513 19.7L17.798 23V16.401L23.513 19.7Z" stroke="white" stroke-linejoin="round"/>
<path d="M20 39C30.4934 39 39 30.4934 39 20C39 9.50659 30.4934 1 20 1C9.50659 1 1 9.50659 1 20C1 30.4934 9.50659 39 20 39Z" stroke="white"/>
</g>
<defs>
<clipPath id="clip0_126_16652">
<rect width="40" height="40" fill="white"/>
</clipPath>
</defs>
</svg>
