<svg width="10" height="10" viewBox="0 0 10 10" fill="none" xmlns="http://www.w3.org/2000/svg">
<path d="M9.58464 5.8335C9.58464 6.05451 9.49684 6.26647 9.34056 6.42275C9.18428 6.57903 8.97232 6.66683 8.7513 6.66683H6.11797L6.51797 8.571C6.5263 8.61266 6.53047 8.6585 6.53047 8.70433C6.53047 8.87516 6.45964 9.0335 6.34714 9.146L5.90547 9.5835L3.1638 6.84183C3.00964 6.68766 2.91797 6.47933 2.91797 6.25016V2.0835C2.91797 1.86248 3.00577 1.65052 3.16205 1.49424C3.31833 1.33796 3.53029 1.25016 3.7513 1.25016H7.5013C7.84714 1.25016 8.14297 1.4585 8.26797 1.7585L9.5263 4.696C9.5638 4.79183 9.58464 4.89183 9.58464 5.00016V5.8335ZM0.417969 1.25016H2.08464V6.25016H0.417969V1.25016Z" fill="#FD5454"/>
</svg>
