<svg width="10" height="10" viewBox="0 0 10 10" fill="none" xmlns="http://www.w3.org/2000/svg">
<path d="M9.58464 4.1665C9.58464 3.94549 9.49684 3.73353 9.34056 3.57725C9.18428 3.42097 8.97232 3.33317 8.7513 3.33317H6.11797L6.51797 1.429C6.5263 1.38734 6.53047 1.3415 6.53047 1.29567C6.53047 1.12484 6.45964 0.966504 6.34714 0.854004L5.90547 0.416504L3.1638 3.15817C3.00964 3.31234 2.91797 3.52067 2.91797 3.74984V7.9165C2.91797 8.13752 3.00577 8.34948 3.16205 8.50576C3.31833 8.66204 3.53029 8.74984 3.7513 8.74984H7.5013C7.84714 8.74984 8.14297 8.5415 8.26797 8.2415L9.5263 5.304C9.5638 5.20817 9.58464 5.10817 9.58464 4.99984V4.1665ZM0.417969 8.74984H2.08464V3.74984H0.417969V8.74984Z" fill="#1BD079"/>
</svg>
