<svg width="24" height="24" viewBox="0 0 24 24" fill="none" xmlns="http://www.w3.org/2000/svg">
<path d="M6 6.00015V10.2001M18 6.00015V10.2001M17.4 14.4001H19.8C20.7941 14.4001 21.6 13.5943 21.6 12.6001V4.20015C21.6 3.20603 20.7941 2.40015 19.8 2.40015H4.2C3.20589 2.40015 2.4 3.20603 2.4 4.20015V12.6001C2.4 13.5943 3.20589 14.4001 4.2 14.4001H6.6M8.60494 18.2058L11.999 21.5999M11.999 21.5999L15.1645 18.4345M11.999 21.5999L11.9992 14.6576M14.4 8.40015C14.4 9.72563 13.3255 10.8001 12 10.8001C10.6745 10.8001 9.6 9.72563 9.6 8.40015C9.6 7.07466 10.6745 6.00015 12 6.00015C13.3255 6.00015 14.4 7.07466 14.4 8.40015Z" stroke="white" stroke-width="2" stroke-linecap="round" stroke-linejoin="round"/>
</svg>
