<svg width="87" height="16" viewBox="0 0 87 16" fill="none" xmlns="http://www.w3.org/2000/svg">
<path d="M9.92918 1.5C12.3004 1.5 13.9798 2.86111 13.9798 4.98016C14.0087 5.40272 13.9309 5.82576 13.7536 6.21099C13.5762 6.59623 13.3049 6.93151 12.9642 7.18651C14.1638 7.80159 14.8835 8.85714 14.8835 10.4564C14.8835 12.6905 13.0561 14.5 10.569 14.5H1.5V1.5H9.92918ZM4.471 6.50794H10.0371C10.3378 6.49055 10.6192 6.35536 10.8194 6.13211C11.0196 5.90886 11.1223 5.61582 11.1048 5.31746C11.1048 4.75397 10.7969 4.12699 9.80123 4.12699H4.471V6.50794ZM4.471 11.8413H10.469C11.4167 11.8413 11.9845 11.254 11.9845 10.4564C11.993 10.268 11.9611 10.0799 11.8909 9.9047C11.8207 9.72946 11.7139 9.57098 11.5775 9.43972C11.4411 9.30846 11.2782 9.20741 11.0995 9.14324C10.9208 9.07907 10.7304 9.05324 10.541 9.06746H4.471V11.8413Z" fill="#142546"/>
<path d="M28.7396 1.5V4.15476H19.8106V6.53571H27.8399V9.19444H19.8106V11.7817H29.0715V14.4841H16.8676V1.5H28.7396Z" fill="#142546"/>
<path d="M38.9999 1.5C42.0789 1.5 44.4021 3.54365 44.4021 6.59921C44.4312 7.48364 44.2089 8.35833 43.7606 9.12325C43.3122 9.88817 42.656 10.5124 41.867 10.9246L43.8663 14.496H40.6434L39.1039 11.6032H34.2255V14.496H31.2625V1.5H38.9999ZM34.2375 8.92857H38.88C40.3955 8.92857 41.4391 8.10714 41.4391 6.59921C41.4391 5.09127 40.3955 4.17857 38.88 4.17857H34.2375V8.92857Z" fill="#142546"/>
<path d="M49.3046 1.5V14.5H46.3456V1.5H49.3046Z" fill="#142546"/>
<path d="M60.1048 1.5C62.476 1.5 64.1555 2.86111 64.1555 4.98016C64.1843 5.40272 64.1066 5.82576 63.9292 6.21099C63.7519 6.59623 63.4806 6.93151 63.1398 7.18651C64.3394 7.80159 65.0592 8.85714 65.0592 10.4564C65.0592 12.6905 63.2318 14.5 60.7446 14.5H51.6757V1.5H60.1048ZM54.6347 6.50794H60.2008C60.5015 6.49055 60.7828 6.35536 60.9831 6.13211C61.1833 5.90886 61.2859 5.61582 61.2685 5.31746C61.2685 4.75397 60.9606 4.12699 59.9649 4.12699H54.6347V6.50794ZM54.6347 11.8413H60.6527C61.6003 11.8413 62.1682 11.254 62.1682 10.4564C62.1766 10.268 62.1447 10.0799 62.0745 9.9047C62.0044 9.72946 61.8976 9.57098 61.7612 9.43972C61.6247 9.30846 61.4618 9.20741 61.2831 9.14324C61.1045 9.07907 60.9141 9.05324 60.7246 9.06746H54.6347V11.8413Z" fill="#142546"/>
<path d="M69.9843 1.5V14.5H67.0253V1.5H69.9843Z" fill="#142546"/>
<path d="M85.4994 1.5V4.13095H80.1692V14.5H77.2102V4.13095H71.8799V1.5H85.4994Z" fill="#142546"/>
</svg>
