<svg width="20" height="20" viewBox="0 0 20 20" fill="none" xmlns="http://www.w3.org/2000/svg">
<path fill-rule="evenodd" clip-rule="evenodd" d="M10.0001 4.58333C8.80348 4.58333 7.83344 5.55338 7.83344 6.75C7.83344 7.94661 8.80348 8.91666 10.0001 8.91666C11.1967 8.91666 12.1668 7.94661 12.1668 6.75C12.1668 5.55338 11.1967 4.58333 10.0001 4.58333ZM6.16677 6.75C6.16677 4.63291 7.88301 2.91666 10.0001 2.91666C12.1172 2.91666 13.8334 4.63291 13.8334 6.75C13.8334 8.86709 12.1172 10.5833 10.0001 10.5833C7.88301 10.5833 6.16677 8.86709 6.16677 6.75ZM1.98348 15.8215C3.29478 13.6343 6.05963 12.3135 10.0001 12.3135C13.9406 12.3135 16.7054 13.6343 18.0167 15.8215C18.2534 16.2162 18.1252 16.7281 17.7305 16.9647C17.3358 17.2014 16.8239 17.0732 16.5873 16.6785C15.6895 15.1811 13.613 13.9802 10.0001 13.9802C6.38725 13.9802 4.31065 15.1811 3.41293 16.6785C3.17628 17.0732 2.66444 17.2014 2.26971 16.9647C1.87497 16.7281 1.74683 16.2162 1.98348 15.8215Z" fill="white"/>
</svg>
