<svg width="210" height="175" viewBox="0 0 210 175" fill="none" xmlns="http://www.w3.org/2000/svg">
<g opacity="0.7">
<g clip-path="url(#clip0_208_1690)">
<g filter="url(#filter0_f_208_1690)">
<circle cx="158" cy="167" r="65" fill="#373FFF"/>
</g>
</g>
</g>
<g clip-path="url(#clip1_208_1690)">
<path opacity="0.5" d="M125.632 193.357L145.517 204.811C147.212 205.811 149.321 205.811 151.051 204.811L184.319 185.663L197.391 178.142C199.224 177.107 199.224 174.451 197.391 173.416L195.316 172.208" stroke="url(#paint0_linear_208_1690)" stroke-width="1.4" stroke-miterlimit="10" stroke-linecap="round" stroke-linejoin="round"/>
<path opacity="0.5" d="M190.129 189.355L177.783 182.248C175.95 181.213 175.95 178.556 177.783 177.521L179.858 176.314L188.192 171.518" stroke="url(#paint1_linear_208_1690)" stroke-width="1.4" stroke-miterlimit="10" stroke-linecap="round" stroke-linejoin="round"/>
<path opacity="0.5" d="M90.116 166.653L74.8997 157.89L61.8274 150.335C59.9945 149.3 59.9945 146.643 61.8274 145.608L63.9024 144.401L86.554 131.36" stroke="url(#paint2_linear_208_1690)" stroke-width="1.4" stroke-miterlimit="10" stroke-linecap="round" stroke-linejoin="round"/>
<path opacity="0.5" d="M173.599 150.991L188.677 142.435L201.023 135.328C202.855 134.293 202.855 131.636 201.023 130.601L198.948 129.394L190.613 124.598" stroke="url(#paint3_linear_208_1690)" stroke-width="1.4" stroke-miterlimit="10" stroke-linecap="round" stroke-linejoin="round"/>
<path d="M80.2255 176.555L112.353 158.029L120.48 162.721L88.3524 181.247L80.2255 176.555Z" fill="url(#paint4_linear_208_1690)"/>
<path d="M88.3524 169.379L80.2255 164.687L88.3524 159.995L96.5139 164.687L88.3524 169.379Z" fill="url(#paint5_linear_208_1690)"/>
<path d="M88.3523 169.379V181.247L96.5138 176.555V164.687L88.3523 169.379Z" fill="url(#paint6_linear_208_1690)"/>
<path d="M88.3524 169.379L80.2255 164.687V176.555L88.3524 181.247V169.379Z" fill="url(#paint7_linear_208_1690)"/>
<path opacity="0.09" d="M88.3524 181.247L80.2255 176.555L88.3524 171.863L96.5139 176.555L88.3524 181.247Z" fill="url(#paint8_linear_208_1690)"/>
<g opacity="0.4">
<path d="M96.5138 168.931L88.3523 177.038V179.695L96.5138 171.587V168.931Z" fill="url(#paint9_linear_208_1690)"/>
</g>
<path d="M155.131 158.649L140.295 150.093C139.673 149.748 138.947 149.748 138.324 150.093L123.592 158.649C123.212 158.891 123.212 159.443 123.592 159.65L138.428 168.206C139.05 168.551 139.777 168.551 140.399 168.206L155.131 159.65C155.512 159.443 155.512 158.891 155.131 158.649Z" fill="url(#paint10_linear_208_1690)"/>
<path opacity="0.4" d="M138.532 130.463L135.039 128.462L104.364 146.126L83.4415 158.167L90.4272 162.169L93.8855 164.17L107.857 172.208V168.206L97.3783 162.169L93.8855 160.168L90.4272 158.167L107.857 148.127L138.532 130.463Z" fill="url(#paint11_linear_208_1690)"/>
<path d="M170.59 168.206L201.264 150.542L204.723 152.543L174.048 170.207L170.59 168.206Z" fill="url(#paint12_linear_208_1690)"/>
<path d="M71.1301 136.328L103.257 117.836L111.384 122.494L79.257 141.02L71.1301 136.328Z" fill="url(#paint13_linear_208_1690)"/>
<path d="M80.7441 130.843L112.871 112.351L120.998 117.043L88.8711 135.535L80.7441 130.843Z" fill="url(#paint14_linear_208_1690)"/>
<path d="M88.8711 103.829L80.7441 99.1715L88.8711 94.4795L97.0326 99.1715L88.8711 103.829Z" fill="url(#paint15_linear_208_1690)"/>
<path d="M88.8711 103.829V135.535L97.0326 130.843V99.1715L88.8711 103.829Z" fill="url(#paint16_linear_208_1690)"/>
<path d="M88.8711 103.829L80.7441 99.1715V130.843L88.8711 135.535V103.829Z" fill="url(#paint17_linear_208_1690)"/>
<path opacity="0.07" d="M88.8711 135.535L80.7441 130.843L88.8711 126.151L97.0326 130.843L88.8711 135.535Z" fill="url(#paint18_linear_208_1690)"/>
<path opacity="0.6" d="M96.998 108.349L88.8711 116.456V119.113L96.998 111.005V108.349Z" fill="url(#paint19_linear_208_1690)"/>
<path opacity="0.6" d="M97.0326 112.557L88.8711 120.699V129.876L97.0326 121.769V112.557Z" fill="url(#paint20_linear_208_1690)"/>
<path d="M107.857 172.208V168.206L83.4415 154.164V146.126L90.4272 150.128L93.8855 152.129L107.857 160.167V156.165L111.315 160.857L117.436 169.034L118.301 170.207L107.857 172.208Z" fill="url(#paint21_linear_208_1690)"/>
<path d="M135.73 79.2305V87.269L114.808 99.3095V140.088L97.3784 150.128L93.8855 148.127L90.4272 146.126L107.857 136.086V95.3075L132.238 81.266L135.73 79.2305Z" fill="url(#paint22_linear_208_1690)"/>
<path d="M97.3783 150.128L107.857 156.165V160.167L93.8855 152.129L90.4272 150.128L83.4415 146.126L104.364 134.085L107.857 136.086L90.4272 146.126L93.8855 148.127L97.3783 150.128Z" fill="url(#paint23_linear_208_1690)"/>
<path d="M107.857 95.3075V136.087L104.364 134.086V93.3065L107.857 95.3075Z" fill="url(#paint24_linear_208_1690)"/>
<path d="M135.73 79.2305L132.238 81.266L107.857 95.3075L104.364 93.3065L132.238 77.2295L135.73 79.2305Z" fill="url(#paint25_linear_208_1690)"/>
<path d="M121.794 168.206L118.301 170.207L117.436 169.034L111.315 160.858L107.857 156.166L111.315 154.165L121.794 168.206Z" fill="url(#paint26_linear_208_1690)"/>
<path d="M194.971 109.349V117.387L174.048 129.428V170.207L146.174 186.284V178.245L167.097 166.205V125.426L184.527 115.386L188.019 113.385L194.971 109.349Z" fill="url(#paint27_linear_208_1690)"/>
<path d="M170.59 91.3055L167.097 93.3065L161.01 94.4795L156.653 95.3075L160.111 93.3065L170.59 91.3055Z" fill="url(#paint28_linear_208_1690)"/>
<path d="M194.97 109.349L188.019 113.385L184.526 115.386L167.097 125.426L163.604 123.425L181.034 113.385L188.019 109.349L170.59 99.3095L167.097 97.3085L170.59 95.3075L194.97 109.349Z" fill="url(#paint29_linear_208_1690)"/>
<path d="M167.097 125.426V166.205L163.604 164.204V123.425L167.097 125.426Z" fill="url(#paint30_linear_208_1690)"/>
<path d="M167.097 166.205L146.174 178.245L142.682 176.244L163.604 164.204L167.097 166.205Z" fill="url(#paint31_linear_208_1690)"/>
<path d="M170.59 91.3055V95.3075L167.097 97.3085V93.3065L170.59 91.3055Z" fill="url(#paint32_linear_208_1690)"/>
<path d="M188.019 109.349L181.034 113.386L170.59 107.348L167.097 105.347V109.349L156.653 95.3075L161.01 94.4795L167.097 93.3065V97.3085L170.59 99.3095L188.019 109.349Z" fill="url(#paint33_linear_208_1690)"/>
<path d="M167.097 109.349L170.59 107.348L167.097 105.347V109.349Z" fill="url(#paint34_linear_208_1690)"/>
<path d="M146.832 76.229C152.745 72.8135 157.587 75.539 157.587 82.3355C157.621 89.132 152.814 97.412 146.901 100.793C140.987 104.208 136.18 101.448 136.146 94.6865C136.146 87.89 140.918 79.6445 146.832 76.229Z" fill="url(#paint35_linear_208_1690)"/>
<path d="M148.63 77.057C154.543 73.6415 159.385 76.367 159.385 83.1635C159.42 89.96 154.613 98.24 148.699 101.621C142.785 105.036 137.978 102.276 137.944 95.5145C137.909 88.718 142.716 80.4725 148.63 77.057Z" fill="url(#paint36_linear_208_1690)"/>
<path d="M143.892 102.656C145.31 102.656 146.866 102.173 148.492 101.241C154.301 97.895 158.97 89.7875 158.97 83.1635C158.97 78.7475 156.861 76.022 153.471 76.022C152.054 76.022 150.463 76.505 148.872 77.4365C143.097 80.783 138.393 88.8905 138.393 95.5145C138.393 99.9305 140.503 102.656 143.892 102.656Z" fill="url(#paint37_linear_208_1690)"/>
<path d="M150.359 91.754V89.7185C150.67 89.6495 150.878 89.684 151.051 89.7185C151.224 89.7875 151.293 89.9255 151.293 90.167C151.293 90.4085 151.224 90.65 151.051 90.926C150.912 91.271 150.67 91.5125 150.359 91.754ZM149.079 87.959C148.768 88.028 148.526 88.028 148.388 87.959C148.215 87.89 148.146 87.752 148.146 87.5105C148.146 87.269 148.215 86.993 148.388 86.717C148.526 86.441 148.768 86.165 149.114 85.889L149.079 87.959ZM150.324 81.5765L149.045 82.301V83.9225C148.077 84.6125 147.316 85.406 146.832 86.2685C146.347 87.131 146.071 87.9935 146.071 88.787C146.071 89.4425 146.209 89.891 146.486 90.1325C146.762 90.374 147.108 90.4775 147.523 90.443C147.938 90.4085 148.457 90.305 149.045 90.1325V92.582C148.595 92.789 148.146 92.927 147.696 92.996C147.247 93.065 146.866 93.065 146.555 92.9615L145.863 95.135C146.209 95.2385 146.659 95.2385 147.247 95.135C147.834 95.0315 148.422 94.79 149.045 94.4795V96.0665L150.324 95.342V93.686C151.293 92.996 152.019 92.2025 152.538 91.34C153.056 90.4775 153.299 89.6495 153.299 88.856C153.299 88.2005 153.16 87.7865 152.884 87.545C152.607 87.3035 152.261 87.2 151.846 87.269C151.431 87.3035 150.912 87.407 150.324 87.614V85.13C150.982 84.8195 151.639 84.716 152.296 84.7505L152.918 82.577C152.226 82.4735 151.362 82.6805 150.324 83.1635V81.5765Z" fill="url(#paint38_linear_208_1690)"/>
<path d="M128.607 162.824C134.52 159.409 139.362 162.134 139.362 168.931C139.396 175.727 134.589 184.007 128.676 187.388C122.762 190.804 117.955 188.044 117.921 181.282C117.921 174.485 122.693 166.24 128.607 162.824Z" fill="url(#paint39_linear_208_1690)"/>
<path d="M130.405 163.652C136.318 160.237 141.16 162.962 141.16 169.759C141.195 176.555 136.388 184.835 130.474 188.216C124.56 191.632 119.753 188.872 119.719 182.11C119.684 175.313 124.457 167.068 130.405 163.652Z" fill="url(#paint40_linear_208_1690)"/>
<path d="M125.667 189.251C127.085 189.251 128.641 188.768 130.267 187.837C136.076 184.49 140.745 176.383 140.745 169.759C140.745 165.343 138.636 162.617 135.246 162.617C133.829 162.617 132.238 163.1 130.647 164.032C124.872 167.378 120.168 175.486 120.168 182.11C120.168 186.526 122.278 189.251 125.667 189.251Z" fill="url(#paint41_linear_208_1690)"/>
<path d="M129.748 180.143V177.728L131.339 176.797C131.754 176.555 132.065 176.486 132.272 176.59C132.48 176.693 132.618 176.9 132.618 177.314C132.618 178.108 132.203 178.729 131.373 179.212L129.748 180.143ZM129.748 175.9V173.588L131.2 172.76C131.996 172.312 132.411 172.45 132.411 173.209C132.411 173.968 132.03 174.589 131.235 175.037L129.748 175.9ZM132.48 168.482L131.373 169.103V170.552L130.128 171.277V169.828L129.022 170.449V171.898L127.431 172.829L127.465 183.559L129.056 182.627V183.869L130.163 183.248V182.006L131.408 181.282V182.524L132.514 181.903V180.626C133.171 180.143 133.725 179.591 134.14 178.97C134.659 178.142 134.935 177.28 134.935 176.348C134.935 175.727 134.762 175.279 134.451 174.968C134.105 174.692 133.656 174.623 133.102 174.796C133.586 174.382 133.967 173.864 134.278 173.278C134.589 172.657 134.728 172.036 134.728 171.415C134.728 170.518 134.451 170 133.932 169.828C133.552 169.69 133.068 169.759 132.514 170L132.48 168.482Z" fill="url(#paint42_linear_208_1690)"/>
<path d="M182.97 169.965L215.098 151.439L223.259 156.131L191.132 174.657L182.97 169.965Z" fill="url(#paint43_linear_208_1690)"/>
<path d="M191.132 154.578L182.97 149.886L191.132 145.194L199.259 149.886L191.132 154.578Z" fill="url(#paint44_linear_208_1690)"/>
<path d="M191.132 154.578V174.657L199.259 169.965V149.886L191.132 154.578Z" fill="url(#paint45_linear_208_1690)"/>
<path d="M191.132 154.578L182.97 149.886V169.965L191.132 174.657V154.578Z" fill="url(#paint46_linear_208_1690)"/>
<path opacity="0.29" d="M191.132 174.657L182.97 169.965L191.132 165.273L199.259 169.965L191.132 174.657Z" fill="url(#paint47_linear_208_1690)"/>
<g opacity="0.4">
<path d="M199.259 152.267L191.097 160.409V163.065L199.259 154.923V152.267Z" fill="url(#paint48_linear_208_1690)"/>
<path d="M199.259 156.51L191.097 164.653V173.83L199.259 165.688V156.51Z" fill="url(#paint49_linear_208_1690)"/>
</g>
<path d="M79.257 116.214L71.1301 111.557L79.257 106.865L87.4185 111.557L79.257 116.214Z" fill="url(#paint50_linear_208_1690)"/>
<path d="M79.2571 116.215V141.02L87.4186 136.328V111.557L79.2571 116.215Z" fill="url(#paint51_linear_208_1690)"/>
<path d="M79.257 116.215L71.1301 111.557V136.328L79.257 141.02V116.215Z" fill="url(#paint52_linear_208_1690)"/>
<path opacity="0.29" d="M79.257 141.02L71.1301 136.328L79.257 131.636L87.4185 136.328L79.257 141.02Z" fill="url(#paint53_linear_208_1690)"/>
<path d="M138.324 135.914L126.497 142.78H123.315V144.953C123.315 145.16 123.419 145.333 123.592 145.471L138.428 154.027C138.739 154.199 139.12 154.303 139.465 154.268V135.673C139.085 135.604 138.705 135.707 138.324 135.914Z" fill="url(#paint54_linear_208_1690)"/>
<path d="M152.226 142.779L140.295 135.914C140.053 135.776 139.777 135.672 139.465 135.672V154.268C139.777 154.268 140.088 154.164 140.399 153.992L155.131 145.436C155.339 145.332 155.408 145.125 155.408 144.918V142.745H152.226V142.779Z" fill="url(#paint55_linear_208_1690)"/>
<path d="M155.131 142.262L140.295 133.706C139.673 133.361 138.947 133.361 138.324 133.706L123.592 142.262C123.212 142.504 123.212 143.056 123.592 143.263L138.428 151.819C139.05 152.164 139.777 152.164 140.399 151.819L155.131 143.263C155.512 143.056 155.512 142.469 155.131 142.262Z" fill="url(#paint56_linear_208_1690)"/>
<g opacity="0.86">
<path d="M149.218 142.538C148.734 142.262 147.973 142.262 147.489 142.538C147.074 142.779 147.039 143.124 147.316 143.4L143.927 145.367L141.367 143.883L137.667 146.022L134.036 143.918L136.664 142.4C137.148 142.572 137.771 142.538 138.151 142.296C138.635 142.02 138.635 141.572 138.151 141.296C137.667 141.02 136.872 141.02 136.422 141.296C136.007 141.537 135.973 141.882 136.249 142.158L133.206 143.918L137.252 146.264L132.964 148.748L133.379 148.989L141.367 144.366L143.927 145.85L147.731 143.642C148.215 143.814 148.837 143.78 149.218 143.538C149.702 143.262 149.702 142.814 149.218 142.538Z" fill="url(#paint57_linear_208_1690)"/>
<path d="M145.898 137.053L145.483 136.811L140.641 139.606L137.944 138.053L131.788 141.607C131.304 141.434 130.681 141.469 130.301 141.71C129.817 141.986 129.817 142.435 130.301 142.711C130.785 142.987 131.581 142.987 132.03 142.711C132.445 142.469 132.48 142.124 132.203 141.848L137.944 138.536L140.641 140.089L145.898 137.053Z" fill="url(#paint58_linear_208_1690)"/>
</g>
<path d="M149.148 142.434C148.664 142.158 147.904 142.158 147.419 142.434C147.004 142.676 146.97 143.021 147.246 143.297L143.857 145.263L141.298 143.78L137.598 145.919L133.967 143.814L136.595 142.296C137.079 142.469 137.702 142.434 138.082 142.193C138.566 141.917 138.566 141.468 138.082 141.192C137.598 140.916 136.802 140.916 136.353 141.192C135.938 141.434 135.903 141.779 136.18 142.055L133.137 143.814L137.183 146.16L132.895 148.644L133.31 148.886L141.298 144.263L143.857 145.746L147.661 143.538C148.146 143.711 148.768 143.676 149.148 143.435C149.633 143.159 149.633 142.71 149.148 142.434Z" fill="url(#paint59_linear_208_1690)"/>
<path d="M145.829 136.949L145.414 136.708L140.572 139.502L137.875 137.95L131.719 141.538C131.235 141.365 130.612 141.4 130.232 141.641C129.748 141.917 129.748 142.366 130.232 142.642C130.716 142.918 131.511 142.918 131.961 142.642C132.376 142.4 132.41 142.055 132.134 141.779L137.875 138.467L140.572 140.02L145.829 136.949Z" fill="url(#paint60_linear_208_1690)"/>
<path d="M127.327 111.316V126.53C127.327 127.186 128.019 127.6 128.606 127.255L146.866 116.698C147.419 116.387 147.731 115.801 147.731 115.18V99.9305C147.731 99.3095 147.074 98.93 146.555 99.2405L128.191 109.798C127.638 110.143 127.327 110.695 127.327 111.316Z" fill="url(#paint61_linear_208_1690)"/>
<path d="M127.984 111.557V126.772C127.984 127.427 128.676 127.841 129.264 127.496L147.523 116.939C148.077 116.629 148.388 116.042 148.388 115.421V100.172C148.388 99.551 147.731 99.1715 147.212 99.482L128.849 110.039C128.295 110.35 127.984 110.936 127.984 111.557Z" fill="url(#paint62_linear_208_1690)"/>
<path d="M133.414 116.732C133.206 116.87 133.033 116.905 132.895 116.836C132.756 116.767 132.687 116.629 132.687 116.422C132.687 116.215 132.756 116.008 132.895 115.801C133.033 115.594 133.206 115.421 133.414 115.318C133.656 115.18 133.828 115.145 133.967 115.214C134.105 115.283 134.174 115.421 134.174 115.628C134.174 115.835 134.105 116.042 133.967 116.249C133.794 116.456 133.621 116.629 133.414 116.732ZM133.344 114.524C133.033 114.697 132.791 114.904 132.549 115.18C132.307 115.456 132.099 115.732 131.961 116.077C131.823 116.387 131.754 116.732 131.754 117.043C131.754 117.353 131.823 117.56 131.961 117.733C132.099 117.871 132.272 117.974 132.48 117.974C132.687 117.974 132.929 117.905 133.206 117.733C133.656 117.491 134.001 117.146 134.243 116.698C134.243 117.146 134.105 117.56 133.898 117.94C133.69 118.285 133.414 118.595 133.068 118.802C132.756 118.975 132.48 119.044 132.272 119.009L131.926 120.044C132.065 120.079 132.238 120.044 132.445 119.975C132.653 119.906 132.86 119.837 133.102 119.699C133.517 119.458 133.898 119.147 134.209 118.733C134.52 118.354 134.797 117.905 134.97 117.422C135.143 116.939 135.246 116.422 135.246 115.87C135.246 115.111 135.073 114.593 134.728 114.386C134.382 114.11 133.932 114.179 133.344 114.524Z" fill="url(#paint63_linear_208_1690)"/>
<path d="M137.425 116.318C137.183 116.456 137.01 116.49 136.837 116.456C136.699 116.421 136.63 116.283 136.63 116.076C136.63 115.869 136.699 115.662 136.837 115.455C136.976 115.248 137.183 115.076 137.391 114.938C137.633 114.8 137.84 114.731 137.978 114.8C138.117 114.834 138.186 114.972 138.186 115.179C138.186 115.386 138.117 115.593 137.978 115.8C137.875 116.007 137.702 116.18 137.425 116.318ZM137.425 114.179C137.218 114.282 137.079 114.317 136.941 114.282C136.837 114.248 136.768 114.144 136.768 113.937C136.768 113.765 136.837 113.558 136.941 113.385C137.045 113.213 137.218 113.075 137.425 112.937C137.633 112.833 137.771 112.799 137.909 112.833C138.013 112.868 138.082 112.971 138.082 113.178C138.082 113.351 138.013 113.558 137.909 113.73C137.805 113.903 137.633 114.075 137.425 114.179ZM137.425 112.178C137.114 112.35 136.837 112.592 136.595 112.833C136.353 113.075 136.146 113.351 136.042 113.627C135.903 113.903 135.834 114.179 135.834 114.489C135.834 114.696 135.869 114.869 135.973 115.007C136.042 115.11 136.18 115.179 136.318 115.214C136.111 115.455 135.973 115.697 135.834 115.938C135.731 116.18 135.661 116.456 135.661 116.697C135.661 117.008 135.731 117.215 135.869 117.353C136.007 117.491 136.215 117.56 136.491 117.525C136.768 117.491 137.079 117.387 137.425 117.18C137.771 116.973 138.082 116.732 138.359 116.456C138.635 116.18 138.843 115.904 138.981 115.593C139.12 115.283 139.189 114.972 139.189 114.696C139.189 114.455 139.12 114.248 139.016 114.11C138.912 113.972 138.739 113.903 138.532 113.903C138.705 113.696 138.808 113.489 138.912 113.282C138.981 113.075 139.05 112.833 139.05 112.626C139.05 112.35 138.981 112.143 138.843 112.005C138.705 111.867 138.497 111.833 138.255 111.867C138.048 111.867 137.736 111.971 137.425 112.178Z" fill="url(#paint64_linear_208_1690)"/>
<path d="M140.295 114.145C140.123 114.248 139.984 114.386 139.88 114.559C139.777 114.731 139.708 114.938 139.708 115.145C139.708 115.283 139.742 115.387 139.811 115.456C139.88 115.525 139.95 115.559 140.053 115.559L139.777 116.801L140.365 116.456L140.71 115.283C140.78 115.076 140.814 114.904 140.849 114.8C140.883 114.697 140.883 114.593 140.883 114.524C140.883 114.317 140.814 114.214 140.71 114.145C140.572 114.041 140.434 114.041 140.295 114.145Z" fill="url(#paint65_linear_208_1690)"/>
<path d="M143.097 113.075C142.855 113.213 142.682 113.248 142.543 113.213C142.405 113.179 142.336 113.041 142.336 112.834C142.336 112.627 142.405 112.42 142.543 112.213C142.682 112.006 142.889 111.833 143.097 111.695C143.339 111.557 143.546 111.488 143.685 111.557C143.823 111.592 143.892 111.73 143.892 111.937C143.892 112.144 143.823 112.351 143.685 112.558C143.546 112.765 143.339 112.937 143.097 113.075ZM143.097 110.936C142.889 111.04 142.751 111.074 142.612 111.04C142.509 111.005 142.44 110.902 142.44 110.695C142.44 110.522 142.509 110.315 142.612 110.143C142.716 109.97 142.889 109.832 143.097 109.694C143.304 109.591 143.442 109.556 143.581 109.591C143.685 109.625 143.754 109.729 143.754 109.936C143.754 110.108 143.685 110.315 143.581 110.488C143.442 110.66 143.304 110.798 143.097 110.936ZM143.097 108.901C142.785 109.073 142.509 109.315 142.267 109.556C142.025 109.798 141.817 110.074 141.713 110.35C141.575 110.626 141.506 110.902 141.506 111.212C141.506 111.419 141.54 111.592 141.644 111.73C141.713 111.833 141.852 111.902 141.99 111.937C141.782 112.178 141.644 112.42 141.506 112.661C141.402 112.903 141.333 113.179 141.333 113.42C141.333 113.731 141.402 113.938 141.54 114.076C141.679 114.214 141.886 114.283 142.163 114.248C142.44 114.214 142.751 114.11 143.097 113.903C143.442 113.696 143.754 113.455 144.03 113.179C144.307 112.903 144.514 112.627 144.653 112.316C144.791 112.006 144.86 111.695 144.86 111.419C144.86 111.178 144.791 110.971 144.687 110.833C144.584 110.695 144.411 110.626 144.203 110.626C144.376 110.419 144.48 110.212 144.584 110.005C144.653 109.798 144.722 109.556 144.722 109.349C144.722 109.073 144.653 108.866 144.514 108.728C144.376 108.59 144.169 108.556 143.927 108.59C143.685 108.625 143.408 108.728 143.097 108.901Z" fill="url(#paint66_linear_208_1690)"/>
<path d="M104.399 137.846V153.06C104.399 153.716 103.707 154.13 103.119 153.785L84.8596 143.228C84.3062 142.917 83.995 142.331 83.995 141.71V126.461C83.995 125.84 84.6521 125.46 85.1708 125.771L103.534 136.328C104.087 136.638 104.399 137.225 104.399 137.846Z" fill="url(#paint67_linear_208_1690)"/>
<path d="M103.742 138.053V153.267C103.742 153.923 103.05 154.337 102.462 153.992L84.2025 143.435C83.6491 143.124 83.3379 142.538 83.3379 141.917V126.668C83.3379 126.047 83.995 125.667 84.5137 125.978L102.877 136.535C103.43 136.88 103.742 137.432 103.742 138.053Z" fill="url(#paint68_linear_208_1690)"/>
<path d="M88.802 136.086L89.5974 136.535C90.0124 136.776 90.2199 137.087 90.2199 137.501C90.2199 137.708 90.1507 137.811 90.047 137.846C89.9432 137.88 89.7703 137.846 89.5628 137.742L88.7674 137.294L88.802 136.086ZM88.802 138.191L89.5282 138.605C89.9086 138.846 90.1161 139.122 90.1161 139.502C90.1161 139.881 89.9086 139.95 89.5282 139.743L88.802 139.329V138.191ZM90.1507 141.882V141.123C90.4274 141.227 90.6695 141.261 90.8769 141.227C91.1536 141.123 91.2574 140.882 91.2574 140.433C91.2574 140.123 91.1882 139.812 91.0499 139.502C90.9115 139.191 90.704 138.95 90.462 138.743C90.7386 138.846 90.9807 138.812 91.119 138.674C91.2919 138.536 91.3611 138.294 91.3611 137.984C91.3611 137.535 91.2228 137.087 90.9807 136.673C90.7732 136.362 90.4965 136.086 90.1853 135.845V135.224L89.632 134.913V135.534L89.0095 135.189V134.568L88.4562 134.258V134.879L87.6608 134.43V139.778L88.4562 140.226V140.951L89.0095 141.261V140.537L89.632 140.882V141.606L90.1507 141.882Z" fill="url(#paint69_linear_208_1690)"/>
<path d="M98.9 141.192L96.3409 139.709L96.1334 142.296L97.2055 142.917C97.5513 143.124 97.828 143.331 97.9663 143.504C98.1046 143.676 98.1738 143.883 98.1738 144.09C98.1738 144.297 98.1046 144.401 97.9663 144.435C97.828 144.47 97.6205 144.401 97.3784 144.263C97.1709 144.125 96.9288 143.987 96.7213 143.78C96.5138 143.573 96.3409 143.366 96.168 143.124L95.7876 143.745C95.9951 144.021 96.2372 144.297 96.5138 144.539C96.7905 144.78 97.1017 145.022 97.3784 145.16C97.7588 145.367 98.07 145.505 98.3467 145.505C98.6234 145.505 98.7963 145.436 98.9346 145.263C99.0729 145.091 99.1421 144.849 99.1421 144.573C99.1421 144.125 99.0038 143.676 98.7271 143.228C98.4505 142.779 98.0009 142.4 97.413 142.055L97.0671 141.848L97.1363 140.985L98.9 141.986V141.192Z" fill="url(#paint70_linear_208_1690)"/>
<path d="M190.717 136.397L222.844 117.905L231.006 122.563L198.878 141.089L190.717 136.397Z" fill="url(#paint71_linear_208_1690)"/>
<path d="M198.878 129.221L190.717 124.529L198.878 119.837L207.005 124.529L198.878 129.221Z" fill="url(#paint72_linear_208_1690)"/>
<path d="M198.878 129.221V141.089L207.005 136.397V124.529L198.878 129.221Z" fill="url(#paint73_linear_208_1690)"/>
<path d="M198.878 129.221L190.717 124.529V136.397L198.878 141.089V129.221Z" fill="url(#paint74_linear_208_1690)"/>
<path opacity="0.09" d="M198.878 141.089L190.717 136.397L198.878 131.705L207.005 136.397L198.878 141.089Z" fill="url(#paint75_linear_208_1690)"/>
<g opacity="0.4">
<path d="M207.005 128.773L198.878 136.88V139.537L207.005 131.429V128.773Z" fill="url(#paint76_linear_208_1690)"/>
</g>
</g>
<defs>
<filter id="filter0_f_208_1690" x="-15" y="-6" width="346" height="346" filterUnits="userSpaceOnUse" color-interpolation-filters="sRGB">
<feFlood flood-opacity="0" result="BackgroundImageFix"/>
<feBlend mode="normal" in="SourceGraphic" in2="BackgroundImageFix" result="shape"/>
<feGaussianBlur stdDeviation="54" result="effect1_foregroundBlur_208_1690"/>
</filter>
<linearGradient id="paint0_linear_208_1690" x1="146.516" y1="169.857" x2="178.928" y2="199.127" gradientUnits="userSpaceOnUse">
<stop offset="0.025" stop-color="#DCE4EB"/>
<stop offset="0.67" stop-color="#4C95EC"/>
<stop offset="1" stop-color="#006CED"/>
</linearGradient>
<linearGradient id="paint1_linear_208_1690" x1="192.407" y1="175.802" x2="180.878" y2="186.213" gradientUnits="userSpaceOnUse">
<stop stop-color="#006CED"/>
<stop offset="0.33" stop-color="#4C95EC" stop-opacity="0.661"/>
<stop offset="0.975" stop-color="#DCE4EB" stop-opacity="0"/>
</linearGradient>
<linearGradient id="paint2_linear_208_1690" x1="94.3022" y1="139.597" x2="70.783" y2="160.836" gradientUnits="userSpaceOnUse">
<stop offset="0.025" stop-color="#DCE4EB"/>
<stop offset="0.67" stop-color="#4C95EC"/>
<stop offset="1" stop-color="#006CED"/>
</linearGradient>
<linearGradient id="paint3_linear_208_1690" x1="180.919" y1="134.996" x2="192.448" y2="145.407" gradientUnits="userSpaceOnUse">
<stop offset="0.025" stop-color="#DCE4EB" stop-opacity="0"/>
<stop offset="0.67" stop-color="#4C95EC" stop-opacity="0.661"/>
<stop offset="1" stop-color="#006CED"/>
</linearGradient>
<linearGradient id="paint4_linear_208_1690" x1="87.226" y1="184.357" x2="109.95" y2="158.773" gradientUnits="userSpaceOnUse">
<stop offset="0.025" stop-color="#4591D7"/>
<stop offset="0.786" stop-color="#D6E6F6" stop-opacity="0.219"/>
<stop offset="1" stop-color="white" stop-opacity="0"/>
</linearGradient>
<linearGradient id="paint5_linear_208_1690" x1="118.09" y1="190.657" x2="82.6022" y2="159.498" gradientUnits="userSpaceOnUse">
<stop offset="0.025" stop-color="#0043C6"/>
<stop offset="0.582" stop-color="#90ADE6"/>
<stop offset="1" stop-color="white"/>
</linearGradient>
<linearGradient id="paint6_linear_208_1690" x1="93.0714" y1="160.425" x2="92.0382" y2="180.796" gradientUnits="userSpaceOnUse">
<stop offset="0.025" stop-color="#0068D1"/>
<stop offset="0.697" stop-color="#9082D5"/>
<stop offset="1" stop-color="#D38ED7"/>
</linearGradient>
<linearGradient id="paint7_linear_208_1690" x1="75.0626" y1="185.787" x2="118.533" y2="125.094" gradientUnits="userSpaceOnUse">
<stop offset="0.025" stop-color="#DCE4EB"/>
<stop offset="0.67" stop-color="#4C95EC"/>
<stop offset="1" stop-color="#006CED"/>
</linearGradient>
<linearGradient id="paint8_linear_208_1690" x1="80.2244" y1="176.552" x2="96.5021" y2="176.552" gradientUnits="userSpaceOnUse">
<stop offset="0.025" stop-color="#0043C6"/>
<stop offset="0.582" stop-color="#90ADE6"/>
<stop offset="1" stop-color="white"/>
</linearGradient>
<linearGradient id="paint9_linear_208_1690" x1="88.7541" y1="161.715" x2="93.7917" y2="179.064" gradientUnits="userSpaceOnUse">
<stop offset="0.025" stop-color="white"/>
<stop offset="1" stop-color="#83B8F6" stop-opacity="0"/>
</linearGradient>
<linearGradient id="paint10_linear_208_1690" x1="146.782" y1="134.007" x2="134.682" y2="175.275" gradientUnits="userSpaceOnUse">
<stop offset="0.025" stop-color="#4591D7"/>
<stop offset="0.786" stop-color="#D6E6F6" stop-opacity="0.219"/>
<stop offset="1" stop-color="white" stop-opacity="0"/>
</linearGradient>
<linearGradient id="paint11_linear_208_1690" x1="81.6591" y1="133.856" x2="145.864" y2="160.58" gradientUnits="userSpaceOnUse">
<stop offset="0.025" stop-color="#4591D7"/>
<stop offset="0.786" stop-color="#D6E6F6" stop-opacity="0.219"/>
<stop offset="1" stop-color="white" stop-opacity="0"/>
</linearGradient>
<linearGradient id="paint12_linear_208_1690" x1="168.688" y1="186.995" x2="194.838" y2="150.12" gradientUnits="userSpaceOnUse">
<stop offset="0.025" stop-color="#4591D7"/>
<stop offset="0.786" stop-color="#D6E6F6" stop-opacity="0.219"/>
<stop offset="1" stop-color="white" stop-opacity="0"/>
</linearGradient>
<linearGradient id="paint13_linear_208_1690" x1="72.5352" y1="150.398" x2="108.261" y2="110.175" gradientUnits="userSpaceOnUse">
<stop offset="0.025" stop-color="#4591D7"/>
<stop offset="0.786" stop-color="#D6E6F6" stop-opacity="0.219"/>
<stop offset="1" stop-color="white" stop-opacity="0"/>
</linearGradient>
<linearGradient id="paint14_linear_208_1690" x1="82.152" y1="144.913" x2="117.877" y2="104.69" gradientUnits="userSpaceOnUse">
<stop offset="0.025" stop-color="#4591D7"/>
<stop offset="0.786" stop-color="#D6E6F6" stop-opacity="0.219"/>
<stop offset="1" stop-color="white" stop-opacity="0"/>
</linearGradient>
<linearGradient id="paint15_linear_208_1690" x1="118.607" y1="125.132" x2="83.1192" y2="93.9734" gradientUnits="userSpaceOnUse">
<stop offset="0.025" stop-color="#0043C6"/>
<stop offset="0.582" stop-color="#90ADE6"/>
<stop offset="1" stop-color="white"/>
</linearGradient>
<linearGradient id="paint16_linear_208_1690" x1="50.3927" y1="67.2849" x2="102.422" y2="128.779" gradientUnits="userSpaceOnUse">
<stop offset="0.025" stop-color="#0068D1"/>
<stop offset="0.697" stop-color="#9082D5"/>
<stop offset="1" stop-color="#D38ED7"/>
</linearGradient>
<linearGradient id="paint17_linear_208_1690" x1="84.7536" y1="117.729" x2="92.6767" y2="63.8615" gradientUnits="userSpaceOnUse">
<stop offset="0.025" stop-color="#DCE4EB"/>
<stop offset="0.67" stop-color="#4C95EC"/>
<stop offset="1" stop-color="#006CED"/>
</linearGradient>
<linearGradient id="paint18_linear_208_1690" x1="80.741" y1="130.843" x2="97.0187" y2="130.843" gradientUnits="userSpaceOnUse">
<stop offset="0.025" stop-color="#0043C6"/>
<stop offset="0.582" stop-color="#90ADE6"/>
<stop offset="1" stop-color="white"/>
</linearGradient>
<linearGradient id="paint19_linear_208_1690" x1="89.2664" y1="101.135" x2="94.3039" y2="118.484" gradientUnits="userSpaceOnUse">
<stop offset="0.025" stop-color="white"/>
<stop offset="1" stop-color="#83B8F6" stop-opacity="0"/>
</linearGradient>
<linearGradient id="paint20_linear_208_1690" x1="86.4164" y1="98.851" x2="95.3625" y2="129.662" gradientUnits="userSpaceOnUse">
<stop offset="0.025" stop-color="white"/>
<stop offset="1" stop-color="#83B8F6" stop-opacity="0"/>
</linearGradient>
<linearGradient id="paint21_linear_208_1690" x1="113.801" y1="134.501" x2="89.6571" y2="178.907" gradientUnits="userSpaceOnUse">
<stop offset="0.025" stop-color="#0068D1"/>
<stop offset="0.346" stop-color="#5377D3"/>
<stop offset="0.636" stop-color="#9883D5"/>
<stop offset="0.844" stop-color="#C38BD7"/>
<stop offset="0.95" stop-color="#D38ED7"/>
</linearGradient>
<linearGradient id="paint22_linear_208_1690" x1="104.33" y1="100.668" x2="144.508" y2="156.139" gradientUnits="userSpaceOnUse">
<stop offset="0.025" stop-color="#0068D1"/>
<stop offset="0.346" stop-color="#5377D3"/>
<stop offset="0.636" stop-color="#9883D5"/>
<stop offset="0.844" stop-color="#C38BD7"/>
<stop offset="0.95" stop-color="#D38ED7"/>
</linearGradient>
<linearGradient id="paint23_linear_208_1690" x1="107.627" y1="175.496" x2="95.1685" y2="139.562" gradientUnits="userSpaceOnUse">
<stop offset="0.025" stop-color="#0068D1"/>
<stop offset="0.346" stop-color="#5377D3"/>
<stop offset="0.636" stop-color="#9883D5"/>
<stop offset="0.844" stop-color="#C38BD7"/>
<stop offset="0.95" stop-color="#D38ED7"/>
</linearGradient>
<linearGradient id="paint24_linear_208_1690" x1="91.5231" y1="148.547" x2="121.269" y2="79.1216" gradientUnits="userSpaceOnUse">
<stop offset="0.025" stop-color="#0068D1"/>
<stop offset="0.346" stop-color="#5377D3"/>
<stop offset="0.636" stop-color="#9883D5"/>
<stop offset="0.844" stop-color="#C38BD7"/>
<stop offset="0.95" stop-color="#D38ED7"/>
</linearGradient>
<linearGradient id="paint25_linear_208_1690" x1="182.079" y1="50.353" x2="108.359" y2="93.2367" gradientUnits="userSpaceOnUse">
<stop offset="0.025" stop-color="#0068D1"/>
<stop offset="0.346" stop-color="#5377D3"/>
<stop offset="0.636" stop-color="#9883D5"/>
<stop offset="0.844" stop-color="#C38BD7"/>
<stop offset="0.95" stop-color="#D38ED7"/>
</linearGradient>
<linearGradient id="paint26_linear_208_1690" x1="119.671" y1="171.117" x2="106.824" y2="147.36" gradientUnits="userSpaceOnUse">
<stop stop-color="#0C6ADD"/>
<stop offset="0.975" stop-color="#0043C6"/>
</linearGradient>
<linearGradient id="paint27_linear_208_1690" x1="156.733" y1="124.185" x2="200.553" y2="199.321" gradientUnits="userSpaceOnUse">
<stop offset="0.025" stop-color="#0068D1"/>
<stop offset="0.346" stop-color="#5377D3"/>
<stop offset="0.636" stop-color="#9883D5"/>
<stop offset="0.844" stop-color="#C38BD7"/>
<stop offset="0.95" stop-color="#D38ED7"/>
</linearGradient>
<linearGradient id="paint28_linear_208_1690" x1="189.149" y1="78.5101" x2="158.801" y2="96.164" gradientUnits="userSpaceOnUse">
<stop offset="0.025" stop-color="#0068D1"/>
<stop offset="0.346" stop-color="#5377D3"/>
<stop offset="0.636" stop-color="#9883D5"/>
<stop offset="0.844" stop-color="#C38BD7"/>
<stop offset="0.95" stop-color="#D38ED7"/>
</linearGradient>
<linearGradient id="paint29_linear_208_1690" x1="168.421" y1="91.6626" x2="180.758" y2="119.848" gradientUnits="userSpaceOnUse">
<stop offset="0.025" stop-color="#0068D1"/>
<stop offset="0.346" stop-color="#5377D3"/>
<stop offset="0.636" stop-color="#9883D5"/>
<stop offset="0.844" stop-color="#C38BD7"/>
<stop offset="0.95" stop-color="#D38ED7"/>
</linearGradient>
<linearGradient id="paint30_linear_208_1690" x1="165.352" y1="213.209" x2="165.352" y2="93.4056" gradientUnits="userSpaceOnUse">
<stop offset="0.025" stop-color="#0068D1"/>
<stop offset="0.346" stop-color="#5377D3"/>
<stop offset="0.636" stop-color="#9883D5"/>
<stop offset="0.844" stop-color="#C38BD7"/>
<stop offset="0.95" stop-color="#D38ED7"/>
</linearGradient>
<linearGradient id="paint31_linear_208_1690" x1="184.456" y1="138.516" x2="151.861" y2="174.744" gradientUnits="userSpaceOnUse">
<stop offset="0.025" stop-color="#0068D1"/>
<stop offset="0.346" stop-color="#5377D3"/>
<stop offset="0.636" stop-color="#9883D5"/>
<stop offset="0.844" stop-color="#C38BD7"/>
<stop offset="0.95" stop-color="#D38ED7"/>
</linearGradient>
<linearGradient id="paint32_linear_208_1690" x1="168.009" y1="92.2977" x2="170.297" y2="97.8461" gradientUnits="userSpaceOnUse">
<stop stop-color="#0C6ADD"/>
<stop offset="0.975" stop-color="#0043C6"/>
</linearGradient>
<linearGradient id="paint33_linear_208_1690" x1="194.469" y1="100.951" x2="145.118" y2="106.745" gradientUnits="userSpaceOnUse">
<stop offset="0.025" stop-color="#0068D1"/>
<stop offset="0.346" stop-color="#5377D3"/>
<stop offset="0.636" stop-color="#9883D5"/>
<stop offset="0.844" stop-color="#C38BD7"/>
<stop offset="0.95" stop-color="#D38ED7"/>
</linearGradient>
<linearGradient id="paint34_linear_208_1690" x1="168.771" y1="108.878" x2="168.858" y2="105.573" gradientUnits="userSpaceOnUse">
<stop stop-color="#0C6ADD"/>
<stop offset="0.975" stop-color="#0043C6"/>
</linearGradient>
<linearGradient id="paint35_linear_208_1690" x1="141.761" y1="100.127" x2="149.349" y2="82.8189" gradientUnits="userSpaceOnUse">
<stop offset="0.025" stop-color="#0068D1"/>
<stop offset="0.697" stop-color="#9082D5"/>
<stop offset="1" stop-color="#D38ED7"/>
</linearGradient>
<linearGradient id="paint36_linear_208_1690" x1="148.399" y1="86.2336" x2="150.157" y2="107.164" gradientUnits="userSpaceOnUse">
<stop offset="0.025" stop-color="white"/>
<stop offset="1" stop-color="#83B8F6"/>
</linearGradient>
<linearGradient id="paint37_linear_208_1690" x1="154.914" y1="93.8668" x2="134.494" y2="79.0347" gradientUnits="userSpaceOnUse">
<stop offset="0.025" stop-color="white"/>
<stop offset="1" stop-color="#83B8F6"/>
</linearGradient>
<linearGradient id="paint38_linear_208_1690" x1="141.319" y1="82.8205" x2="164.105" y2="99.8761" gradientUnits="userSpaceOnUse">
<stop offset="0.025" stop-color="#0068D1"/>
<stop offset="0.346" stop-color="#5377D3"/>
<stop offset="0.636" stop-color="#9883D5"/>
<stop offset="0.844" stop-color="#C38BD7"/>
<stop offset="0.95" stop-color="#D38ED7"/>
</linearGradient>
<linearGradient id="paint39_linear_208_1690" x1="123.532" y1="186.721" x2="131.12" y2="169.413" gradientUnits="userSpaceOnUse">
<stop offset="0.025" stop-color="#0068D1"/>
<stop offset="0.697" stop-color="#9082D5"/>
<stop offset="1" stop-color="#D38ED7"/>
</linearGradient>
<linearGradient id="paint40_linear_208_1690" x1="130.17" y1="172.827" x2="131.928" y2="193.758" gradientUnits="userSpaceOnUse">
<stop offset="0.025" stop-color="white"/>
<stop offset="1" stop-color="#83B8F6"/>
</linearGradient>
<linearGradient id="paint41_linear_208_1690" x1="136.468" y1="182.303" x2="116.953" y2="161.63" gradientUnits="userSpaceOnUse">
<stop offset="0.025" stop-color="white"/>
<stop offset="1" stop-color="#83B8F6"/>
</linearGradient>
<linearGradient id="paint42_linear_208_1690" x1="121.574" y1="169.759" x2="146.343" y2="188.299" gradientUnits="userSpaceOnUse">
<stop offset="0.025" stop-color="#0068D1"/>
<stop offset="0.346" stop-color="#5377D3"/>
<stop offset="0.636" stop-color="#9883D5"/>
<stop offset="0.844" stop-color="#C38BD7"/>
<stop offset="0.95" stop-color="#D38ED7"/>
</linearGradient>
<linearGradient id="paint43_linear_208_1690" x1="184.388" y1="184.027" x2="220.113" y2="143.804" gradientUnits="userSpaceOnUse">
<stop offset="0.025" stop-color="#4591D7"/>
<stop offset="0.736" stop-color="#D6E6F6" stop-opacity="0.219"/>
<stop offset="0.936" stop-color="white" stop-opacity="0"/>
</linearGradient>
<linearGradient id="paint44_linear_208_1690" x1="220.842" y1="175.857" x2="185.355" y2="144.699" gradientUnits="userSpaceOnUse">
<stop offset="0.025" stop-color="#0043C6"/>
<stop offset="0.582" stop-color="#90ADE6"/>
<stop offset="1" stop-color="white"/>
</linearGradient>
<linearGradient id="paint45_linear_208_1690" x1="187.693" y1="136.851" x2="197.901" y2="171.643" gradientUnits="userSpaceOnUse">
<stop offset="0.025" stop-color="#0068D1"/>
<stop offset="0.697" stop-color="#9082D5"/>
<stop offset="1" stop-color="#D38ED7"/>
</linearGradient>
<linearGradient id="paint46_linear_208_1690" x1="185.519" y1="172.6" x2="190.826" y2="136.513" gradientUnits="userSpaceOnUse">
<stop offset="0.025" stop-color="#DCE4EB"/>
<stop offset="0.67" stop-color="#4C95EC"/>
<stop offset="1" stop-color="#006CED"/>
</linearGradient>
<linearGradient id="paint47_linear_208_1690" x1="182.977" y1="169.958" x2="199.255" y2="169.958" gradientUnits="userSpaceOnUse">
<stop offset="0.025" stop-color="#0043C6"/>
<stop offset="0.582" stop-color="#90ADE6"/>
<stop offset="1" stop-color="white"/>
</linearGradient>
<linearGradient id="paint48_linear_208_1690" x1="191.507" y1="145.07" x2="196.544" y2="162.419" gradientUnits="userSpaceOnUse">
<stop offset="0.025" stop-color="white"/>
<stop offset="1" stop-color="#83B8F6" stop-opacity="0"/>
</linearGradient>
<linearGradient id="paint49_linear_208_1690" x1="188.657" y1="142.786" x2="197.603" y2="173.597" gradientUnits="userSpaceOnUse">
<stop offset="0.025" stop-color="white"/>
<stop offset="1" stop-color="#83B8F6" stop-opacity="0"/>
</linearGradient>
<linearGradient id="paint50_linear_208_1690" x1="108.99" y1="137.516" x2="73.5024" y2="106.358" gradientUnits="userSpaceOnUse">
<stop offset="0.025" stop-color="#0043C6"/>
<stop offset="0.582" stop-color="#90ADE6"/>
<stop offset="1" stop-color="white"/>
</linearGradient>
<linearGradient id="paint51_linear_208_1690" x1="74.263" y1="95.5152" x2="86.6209" y2="137.633" gradientUnits="userSpaceOnUse">
<stop offset="0.025" stop-color="#0068D1"/>
<stop offset="0.697" stop-color="#9082D5"/>
<stop offset="1" stop-color="#D38ED7"/>
</linearGradient>
<linearGradient id="paint52_linear_208_1690" x1="73.3607" y1="138.681" x2="79.7296" y2="95.3797" gradientUnits="userSpaceOnUse">
<stop offset="0.025" stop-color="#DCE4EB"/>
<stop offset="0.67" stop-color="#4C95EC"/>
<stop offset="1" stop-color="#006CED"/>
</linearGradient>
<linearGradient id="paint53_linear_208_1690" x1="71.1242" y1="136.328" x2="87.4019" y2="136.328" gradientUnits="userSpaceOnUse">
<stop offset="0.025" stop-color="#0043C6"/>
<stop offset="0.582" stop-color="#90ADE6"/>
<stop offset="1" stop-color="white"/>
</linearGradient>
<linearGradient id="paint54_linear_208_1690" x1="132.299" y1="130.807" x2="131.165" y2="153.156" gradientUnits="userSpaceOnUse">
<stop offset="0.025" stop-color="#0068D1"/>
<stop offset="0.697" stop-color="#9082D5"/>
<stop offset="1" stop-color="#D38ED7"/>
</linearGradient>
<linearGradient id="paint55_linear_208_1690" x1="147.69" y1="135.731" x2="146.557" y2="158.07" gradientUnits="userSpaceOnUse">
<stop offset="0.025" stop-color="#0068D1"/>
<stop offset="0.697" stop-color="#9082D5"/>
<stop offset="1" stop-color="#D38ED7"/>
</linearGradient>
<linearGradient id="paint56_linear_208_1690" x1="131.139" y1="138.316" x2="176.221" y2="162.803" gradientUnits="userSpaceOnUse">
<stop offset="0.025" stop-color="#0043C6"/>
<stop offset="0.582" stop-color="#90ADE6"/>
<stop offset="1" stop-color="white"/>
</linearGradient>
<linearGradient id="paint57_linear_208_1690" x1="140.364" y1="150.846" x2="142.625" y2="134.476" gradientUnits="userSpaceOnUse">
<stop offset="0.025" stop-color="#0043C6"/>
<stop offset="0.156" stop-color="#0446C7"/>
<stop offset="0.279" stop-color="#0F4EC9"/>
<stop offset="0.4" stop-color="#225CCE"/>
<stop offset="0.519" stop-color="#3D70D4"/>
<stop offset="0.637" stop-color="#608ADB"/>
<stop offset="0.753" stop-color="#8AA9E5"/>
<stop offset="0.87" stop-color="#BDCEF0"/>
<stop offset="0.983" stop-color="#F6F8FD"/>
<stop offset="1" stop-color="white"/>
</linearGradient>
<linearGradient id="paint58_linear_208_1690" x1="137.228" y1="144.631" x2="139.331" y2="129.408" gradientUnits="userSpaceOnUse">
<stop offset="0.025" stop-color="#0043C6"/>
<stop offset="0.156" stop-color="#0446C7"/>
<stop offset="0.279" stop-color="#0F4EC9"/>
<stop offset="0.4" stop-color="#225CCE"/>
<stop offset="0.519" stop-color="#3D70D4"/>
<stop offset="0.637" stop-color="#608ADB"/>
<stop offset="0.753" stop-color="#8AA9E5"/>
<stop offset="0.87" stop-color="#BDCEF0"/>
<stop offset="0.983" stop-color="#F6F8FD"/>
<stop offset="1" stop-color="white"/>
</linearGradient>
<linearGradient id="paint59_linear_208_1690" x1="136.444" y1="125.534" x2="142.197" y2="150.158" gradientUnits="userSpaceOnUse">
<stop offset="0.025" stop-color="#0068D1"/>
<stop offset="0.346" stop-color="#5377D3"/>
<stop offset="0.636" stop-color="#9883D5"/>
<stop offset="0.844" stop-color="#C38BD7"/>
<stop offset="0.95" stop-color="#D38ED7"/>
</linearGradient>
<linearGradient id="paint60_linear_208_1690" x1="134.656" y1="125.951" x2="140.41" y2="150.576" gradientUnits="userSpaceOnUse">
<stop offset="0.025" stop-color="#0068D1"/>
<stop offset="0.346" stop-color="#5377D3"/>
<stop offset="0.636" stop-color="#9883D5"/>
<stop offset="0.844" stop-color="#C38BD7"/>
<stop offset="0.95" stop-color="#D38ED7"/>
</linearGradient>
<linearGradient id="paint61_linear_208_1690" x1="133.434" y1="123.865" x2="143.175" y2="98.4549" gradientUnits="userSpaceOnUse">
<stop offset="0.025" stop-color="#0068D1"/>
<stop offset="0.346" stop-color="#5377D3"/>
<stop offset="0.636" stop-color="#9883D5"/>
<stop offset="0.844" stop-color="#C38BD7"/>
<stop offset="0.95" stop-color="#D38ED7"/>
</linearGradient>
<linearGradient id="paint62_linear_208_1690" x1="138.539" y1="103.894" x2="137.654" y2="127.995" gradientUnits="userSpaceOnUse">
<stop offset="0.025" stop-color="#0068D1"/>
<stop offset="0.346" stop-color="#5377D3"/>
<stop offset="0.636" stop-color="#9883D5"/>
<stop offset="0.844" stop-color="#C38BD7"/>
<stop offset="0.95" stop-color="#D38ED7"/>
</linearGradient>
<linearGradient id="paint63_linear_208_1690" x1="132.716" y1="121.491" x2="135.667" y2="102.563" gradientUnits="userSpaceOnUse">
<stop offset="0.025" stop-color="white"/>
<stop offset="1" stop-color="#83B8F6"/>
</linearGradient>
<linearGradient id="paint64_linear_208_1690" x1="136.344" y1="122.057" x2="139.294" y2="103.129" gradientUnits="userSpaceOnUse">
<stop offset="0.025" stop-color="white"/>
<stop offset="1" stop-color="#83B8F6"/>
</linearGradient>
<linearGradient id="paint65_linear_208_1690" x1="139.078" y1="122.483" x2="142.029" y2="103.555" gradientUnits="userSpaceOnUse">
<stop offset="0.025" stop-color="white"/>
<stop offset="1" stop-color="#83B8F6"/>
</linearGradient>
<linearGradient id="paint66_linear_208_1690" x1="141.364" y1="122.84" x2="144.315" y2="103.911" gradientUnits="userSpaceOnUse">
<stop offset="0.025" stop-color="white"/>
<stop offset="1" stop-color="#83B8F6"/>
</linearGradient>
<linearGradient id="paint67_linear_208_1690" x1="83.2978" y1="115.618" x2="94.0744" y2="139.59" gradientUnits="userSpaceOnUse">
<stop offset="0.025" stop-color="white"/>
<stop offset="1" stop-color="#83B8F6"/>
</linearGradient>
<linearGradient id="paint68_linear_208_1690" x1="93.7984" y1="136.898" x2="92.0465" y2="157.751" gradientUnits="userSpaceOnUse">
<stop offset="0.025" stop-color="white"/>
<stop offset="1" stop-color="#83B8F6"/>
</linearGradient>
<linearGradient id="paint69_linear_208_1690" x1="82.8946" y1="126.823" x2="91.3859" y2="141.922" gradientUnits="userSpaceOnUse">
<stop offset="0.025" stop-color="#0068D1"/>
<stop offset="0.346" stop-color="#5377D3"/>
<stop offset="0.636" stop-color="#9883D5"/>
<stop offset="0.844" stop-color="#C38BD7"/>
<stop offset="0.95" stop-color="#D38ED7"/>
</linearGradient>
<linearGradient id="paint70_linear_208_1690" x1="95.3979" y1="139.17" x2="101.852" y2="150.235" gradientUnits="userSpaceOnUse">
<stop offset="0.025" stop-color="#0068D1"/>
<stop offset="0.346" stop-color="#5377D3"/>
<stop offset="0.636" stop-color="#9883D5"/>
<stop offset="0.844" stop-color="#C38BD7"/>
<stop offset="0.95" stop-color="#D38ED7"/>
</linearGradient>
<linearGradient id="paint71_linear_208_1690" x1="197.735" y1="144.2" x2="220.458" y2="118.616" gradientUnits="userSpaceOnUse">
<stop offset="0.025" stop-color="#4591D7"/>
<stop offset="0.786" stop-color="#D6E6F6" stop-opacity="0.219"/>
<stop offset="1" stop-color="white" stop-opacity="0"/>
</linearGradient>
<linearGradient id="paint72_linear_208_1690" x1="228.599" y1="150.5" x2="193.111" y2="119.342" gradientUnits="userSpaceOnUse">
<stop offset="0.025" stop-color="#0043C6"/>
<stop offset="0.582" stop-color="#90ADE6"/>
<stop offset="1" stop-color="white"/>
</linearGradient>
<linearGradient id="paint73_linear_208_1690" x1="203.581" y1="120.269" x2="202.547" y2="140.64" gradientUnits="userSpaceOnUse">
<stop offset="0.025" stop-color="#0068D1"/>
<stop offset="0.697" stop-color="#9082D5"/>
<stop offset="1" stop-color="#D38ED7"/>
</linearGradient>
<linearGradient id="paint74_linear_208_1690" x1="185.571" y1="145.631" x2="229.042" y2="84.938" gradientUnits="userSpaceOnUse">
<stop offset="0.025" stop-color="#DCE4EB"/>
<stop offset="0.67" stop-color="#4C95EC"/>
<stop offset="1" stop-color="#006CED"/>
</linearGradient>
<linearGradient id="paint75_linear_208_1690" x1="190.733" y1="136.395" x2="207.011" y2="136.395" gradientUnits="userSpaceOnUse">
<stop offset="0.025" stop-color="#0043C6"/>
<stop offset="0.582" stop-color="#90ADE6"/>
<stop offset="1" stop-color="white"/>
</linearGradient>
<linearGradient id="paint76_linear_208_1690" x1="199.263" y1="121.558" x2="204.3" y2="138.908" gradientUnits="userSpaceOnUse">
<stop offset="0.025" stop-color="white"/>
<stop offset="1" stop-color="#83B8F6" stop-opacity="0"/>
</linearGradient>
<clipPath id="clip0_208_1690">
<path d="M0 0H210V167C210 171.418 206.418 175 202 175H0V0Z" fill="white"/>
</clipPath>
<clipPath id="clip1_208_1690">
<path d="M38 32H210V167C210 171.418 206.418 175 202 175H38V32Z" fill="white"/>
</clipPath>
</defs>
</svg>
