<svg width="210" height="175" viewBox="0 0 210 175" fill="none" xmlns="http://www.w3.org/2000/svg">
<g opacity="0.7">
<g clip-path="url(#clip0_208_1696)">
<g filter="url(#filter0_f_208_1696)">
<circle cx="158" cy="167" r="65" fill="#373FFF"/>
</g>
</g>
</g>
<g clip-path="url(#clip1_208_1696)">
<path opacity="0.5" d="M121.448 140.123L74.45 167.447" stroke="url(#paint0_linear_208_1696)" stroke-width="1.4" stroke-miterlimit="10" stroke-linecap="round" stroke-linejoin="round"/>
<path opacity="0.5" d="M176.538 200.325L223.467 173.277C225.127 172.311 225.127 169.931 223.467 168.965L221.599 167.895L200.988 156.027" stroke="url(#paint1_linear_208_1696)" stroke-width="1.4" stroke-miterlimit="10" stroke-linecap="round" stroke-linejoin="round"/>
<path opacity="0.5" d="M118.681 173.864L71.7526 146.816C70.0927 145.85 70.0927 143.469 71.7526 142.503L73.6201 141.434L79.6721 137.949" stroke="url(#paint2_linear_208_1696)" stroke-width="1.4" stroke-miterlimit="10" stroke-linecap="round" stroke-linejoin="round"/>
<path opacity="0.5" d="M175.535 152.233L196.146 164.101L198.014 165.17C199.674 166.136 199.674 168.517 198.014 169.483L164.157 188.975L161.771 190.355L134.174 206.26C131.511 207.778 128.226 207.778 125.563 206.26L71.4414 175.072" stroke="url(#paint3_linear_208_1696)" stroke-width="1.4" stroke-miterlimit="10" stroke-linecap="round" stroke-linejoin="round"/>
<path d="M58.3 173.312L90.4272 154.786L98.5542 159.478L66.4269 178.004L58.3 173.312Z" fill="url(#paint4_linear_208_1696)"/>
<path d="M66.4269 166.136L58.3 161.444L66.4269 156.752L74.5884 161.444L66.4269 166.136Z" fill="url(#paint5_linear_208_1696)"/>
<path d="M66.4269 166.136V178.004L74.5884 173.312V161.444L66.4269 166.136Z" fill="url(#paint6_linear_208_1696)"/>
<path d="M66.4269 166.136L58.3 161.444V173.312L66.4269 178.004V166.136Z" fill="url(#paint7_linear_208_1696)"/>
<path opacity="0.09" d="M66.4269 178.004L58.3 173.312L66.4269 168.62L74.5884 173.312L66.4269 178.004Z" fill="url(#paint8_linear_208_1696)"/>
<path d="M75.3146 135.949L107.442 117.457L115.569 122.149L83.4415 140.641L75.3146 135.949Z" fill="url(#paint9_linear_208_1696)"/>
<path d="M83.4415 108.97L75.3146 104.278L83.4415 99.5855L91.603 104.278L83.4415 108.97Z" fill="url(#paint10_linear_208_1696)"/>
<path d="M83.4415 108.97V140.641L91.603 135.949V104.278L83.4415 108.97Z" fill="url(#paint11_linear_208_1696)"/>
<path d="M83.4415 108.97L75.3146 104.278V135.949L83.4415 140.641V108.97Z" fill="url(#paint12_linear_208_1696)"/>
<path opacity="0.07" d="M83.4415 140.64L75.3146 135.948L83.4415 131.256L91.603 135.948L83.4415 140.64Z" fill="url(#paint13_linear_208_1696)"/>
<g opacity="0.54">
<path d="M92.7443 165.239L183.524 112.937C184.492 112.385 185.668 112.385 186.636 112.937L227.132 136.259C228.343 136.949 228.343 138.674 227.132 139.364L137.494 191.045C136.733 191.494 135.765 191.494 135.004 191.045L92.7443 166.723C92.191 166.378 92.191 165.55 92.7443 165.239Z" fill="url(#paint14_linear_208_1696)"/>
</g>
<path d="M182.417 149.852L214.544 131.36L222.706 136.052L190.579 154.544L182.417 149.852Z" fill="url(#paint15_linear_208_1696)"/>
<path d="M190.579 134.465L182.417 129.773L190.579 125.081L198.705 129.773L190.579 134.465Z" fill="url(#paint16_linear_208_1696)"/>
<path d="M190.578 134.465V154.544L198.705 149.852V129.773L190.578 134.465Z" fill="url(#paint17_linear_208_1696)"/>
<path d="M190.579 134.465L182.417 129.773V149.852L190.579 154.544V134.465Z" fill="url(#paint18_linear_208_1696)"/>
<path opacity="0.29" d="M190.579 154.544L182.417 149.852L190.579 145.16L198.705 149.852L190.579 154.544Z" fill="url(#paint19_linear_208_1696)"/>
<path d="M175.431 96.8945L134.935 73.5725C134.658 73.331 134.243 73.262 133.898 73.469L132.238 74.435C131.615 74.8145 131.235 75.47 131.235 76.1945V128.6C131.235 129.394 131.027 130.187 130.647 130.877C130.266 131.602 129.644 132.223 128.918 132.671L83.234 158.96C82.7153 159.236 82.4041 159.788 82.4041 160.375V162.893C82.4041 163.204 82.6116 163.48 82.8882 163.549V163.583L123.35 186.836C123.35 186.836 123.869 186.457 123.903 185.629L124.007 185.663L173.91 154.958L174.67 102.173C176.019 100.31 175.431 96.8945 175.431 96.8945Z" fill="url(#paint20_linear_208_1696)"/>
<path d="M173.045 155.544L123.972 185.732L123.903 185.697C123.869 186.525 123.35 186.905 123.35 186.905L82.8882 163.652V163.617C82.6116 163.514 82.4041 163.272 82.4041 162.962V160.443C82.4041 159.857 82.7153 159.339 83.234 159.029L128.918 132.705C129.609 132.291 130.163 131.739 130.543 131.084L173.045 155.544Z" fill="url(#paint21_linear_208_1696)"/>
<path d="M175.431 96.8945L134.935 73.5725C134.658 73.331 134.243 73.262 133.898 73.469L132.238 74.435C131.961 74.6075 131.719 74.849 131.546 75.125L175.362 100.414C175.743 98.723 175.431 96.8945 175.431 96.8945Z" fill="url(#paint22_linear_208_1696)"/>
<path d="M82.4041 160.375V162.893C82.4041 163.204 82.6116 163.48 82.8882 163.549V163.583L123.35 186.836C123.35 186.836 123.869 186.457 123.903 185.629L124.007 185.663L126.393 184.214L82.577 159.65C82.4732 159.857 82.4041 160.099 82.4041 160.375Z" fill="url(#paint23_linear_208_1696)"/>
<path d="M174.601 96.929C175.224 96.584 175.985 97.0325 175.985 97.7225V152.681C175.985 155.372 174.532 157.89 172.181 159.236L124.145 186.905C123.661 187.181 123.073 186.836 123.073 186.284V183.8C123.073 183.214 123.384 182.696 123.903 182.385L169.587 156.062C170.348 155.613 170.936 154.992 171.316 154.268C171.696 153.578 171.904 152.819 171.904 151.991V99.6545C171.904 98.93 172.284 98.2745 172.907 97.895L174.601 96.929Z" fill="url(#paint24_linear_208_1696)"/>
<g opacity="0.32">
<path d="M116.918 172.933L155.927 150.473C156.48 150.163 157.137 150.163 157.69 150.473L163.812 153.992C164.33 154.303 164.33 155.027 163.812 155.303L124.802 177.763C124.249 178.073 123.592 178.073 123.039 177.763L116.918 174.244C116.399 173.933 116.399 173.209 116.918 172.933ZM90.5656 158.374L129.54 135.914C130.094 135.604 130.751 135.604 131.304 135.914L137.425 139.433C137.944 139.744 137.944 140.468 137.425 140.744L98.4504 163.204C97.8971 163.514 97.24 163.514 96.6867 163.204L90.5656 159.719C90.0468 159.409 90.0468 158.684 90.5656 158.374Z" stroke="#E388D3" stroke-width="1.4" stroke-miterlimit="10" stroke-linecap="round" stroke-linejoin="round"/>
</g>
<path d="M116.572 172.725L155.546 150.266C156.1 149.955 156.757 149.955 157.31 150.266L163.431 153.785C163.95 154.095 163.95 154.82 163.431 155.096L124.457 177.555C123.903 177.866 123.246 177.866 122.693 177.555L116.572 174.037C116.053 173.726 116.053 173.001 116.572 172.725ZM90.1852 158.167L129.16 135.707C129.713 135.396 130.37 135.396 130.924 135.707L137.045 139.226C137.563 139.536 137.563 140.261 137.045 140.537L98.07 162.997C97.5167 163.307 96.8597 163.307 96.3063 162.997L90.1852 159.477C89.701 159.201 89.701 158.477 90.1852 158.167Z" stroke="#3D67D7" stroke-width="1.4" stroke-miterlimit="10" stroke-linecap="round" stroke-linejoin="round"/>
<path d="M160.007 144.988C159.696 144.988 159.35 144.884 159.074 144.746L143.269 135.638C142.509 135.19 141.955 134.5 141.679 133.672C141.54 133.327 141.471 132.947 141.471 132.533V108.211C141.471 107.072 142.405 106.141 143.546 106.141C143.892 106.141 144.272 106.244 144.584 106.417L160.18 115.387C161.252 116.008 161.91 117.146 161.91 118.388V143.125C161.91 143.642 161.702 144.125 161.322 144.47C160.941 144.815 160.492 144.988 160.007 144.988Z" fill="url(#paint25_linear_208_1696)"/>
<path d="M160.007 135.327C159.696 135.327 159.35 135.224 159.074 135.086L143.269 125.978C142.509 125.529 141.955 124.839 141.679 124.011C141.54 123.666 141.471 123.287 141.471 122.873V98.5505C141.471 97.412 142.405 96.4805 143.546 96.4805C143.892 96.4805 144.272 96.584 144.584 96.7565L160.18 105.726C161.252 106.347 161.91 107.486 161.91 108.728V133.43C161.91 133.947 161.702 134.43 161.322 134.775C160.941 135.155 160.492 135.327 160.007 135.327Z" fill="url(#paint26_linear_208_1696)"/>
<path d="M159.212 135.776C158.901 135.776 158.555 135.673 158.278 135.535L142.44 126.392C141.679 125.944 141.125 125.254 140.849 124.426C140.71 124.081 140.641 123.701 140.641 123.287V98.9645C140.641 97.826 141.575 96.8945 142.716 96.8945C143.062 96.8945 143.442 96.998 143.754 97.1705L159.35 106.141C160.422 106.762 161.08 107.9 161.08 109.142V133.879C161.08 134.396 160.872 134.879 160.492 135.224C160.146 135.569 159.696 135.776 159.212 135.776Z" fill="url(#paint27_linear_208_1696)"/>
<path d="M160.284 113.454V133.878C160.284 134.706 159.385 135.224 158.659 134.81L142.855 125.702C142.267 125.357 141.817 124.839 141.61 124.184L160.284 113.454Z" fill="url(#paint28_linear_208_1696)"/>
<path d="M143.373 97.8605C142.543 97.3775 141.471 97.9985 141.471 98.9645V123.287C141.471 123.597 141.506 123.908 141.61 124.184L145.69 121.838V99.206L143.373 97.8605Z" fill="url(#paint29_linear_208_1696)"/>
<path d="M160.284 109.142C160.284 108.21 159.765 107.313 158.935 106.83L145.69 99.206V121.838L160.284 113.454V109.142Z" fill="url(#paint30_linear_208_1696)"/>
<path d="M155.581 133.016L142.855 125.702C142.855 125.702 142.82 125.702 142.82 125.668C146.244 125.288 149.909 125.84 152.572 127.358C155.235 128.911 156.238 131.05 155.581 133.016Z" fill="url(#paint31_linear_208_1696)"/>
<path d="M155.581 133.016V133.948L143.27 126.875L142.82 126.634L142.855 125.702L155.581 133.016Z" fill="url(#paint32_linear_208_1696)"/>
<path d="M155.754 134.085V145.643L143.269 138.363V126.875L155.754 134.085Z" fill="url(#paint33_linear_208_1696)"/>
<path d="M155.581 145.54C155.235 146.747 154.232 147.92 152.607 148.852C148.388 151.301 141.575 151.301 137.321 148.852C133.102 146.402 133.068 142.469 137.287 140.02C138.947 139.054 141.056 138.467 143.235 138.26V138.364L155.581 145.54Z" fill="url(#paint34_linear_208_1696)"/>
<path d="M154.958 63.7745C153.264 62.8085 151.362 62.981 149.944 63.9125L147.177 65.5685L149.564 67.397V80.093L157.829 84.854L159.35 91.0985L162.186 89.408V76.298C162.186 71.1575 159.454 66.362 154.958 63.7745Z" fill="url(#paint35_linear_208_1696)"/>
<path d="M159.385 91.0985V77.9885C159.385 72.8135 156.618 68.0525 152.123 65.465C148.906 63.6365 144.929 65.9135 144.929 69.605V82.7495L159.385 91.0985Z" fill="url(#paint36_linear_208_1696)"/>
<path d="M153.402 75.401C153.333 75.9185 153.125 76.3325 152.745 76.5395C152.295 76.781 151.708 76.712 151.12 76.367C150.532 76.022 149.944 75.4355 149.529 74.6765C149.079 73.9175 148.872 73.124 148.872 72.434C148.872 71.7785 149.114 71.2265 149.563 70.985C149.944 70.778 150.393 70.778 150.878 70.985C150.981 71.0195 151.085 71.0885 151.189 71.123C151.777 71.468 152.365 72.0545 152.78 72.8135C153.125 73.4 153.333 73.262 153.402 73.814C153.437 73.9865 153.437 74.8835 153.437 75.056C153.437 75.194 153.402 75.2975 153.402 75.401Z" fill="url(#paint37_linear_208_1696)"/>
<path d="M153.402 74.1245C153.333 74.642 153.125 75.056 152.745 75.263C152.295 75.5045 151.708 75.4355 151.12 75.0905C150.532 74.7455 149.944 74.159 149.529 73.4C149.079 72.641 148.872 71.8475 148.872 71.1575C148.872 70.502 149.114 69.95 149.563 69.7085C149.944 69.5015 150.393 69.5015 150.878 69.7085C150.981 69.743 151.085 69.812 151.189 69.8465C151.777 70.1915 152.365 70.778 152.78 71.537C153.229 72.296 153.437 73.0895 153.437 73.7795C153.437 73.883 153.402 74.021 153.402 74.1245Z" fill="url(#paint38_linear_208_1696)"/>
<path d="M152.745 74.435C152.676 74.9525 152.468 75.3665 152.088 75.5735C151.638 75.815 151.051 75.746 150.463 75.401C149.875 75.056 149.287 74.4695 148.872 73.7105C148.422 72.9515 148.215 72.158 148.215 71.468C148.215 70.8125 148.457 70.2605 148.906 70.019C149.287 69.812 149.736 69.812 150.221 70.019C150.324 70.0535 150.428 70.1225 150.532 70.157C151.12 70.502 151.708 71.0885 152.123 71.8475C152.572 72.6065 152.78 73.4 152.78 74.09C152.78 74.228 152.78 74.3315 152.745 74.435Z" fill="url(#paint39_linear_208_1696)"/>
<g opacity="0.33">
<path d="M160.284 107.037L137.287 119.526L141.056 121.769L160.284 110.625V107.037Z" fill="url(#paint40_linear_208_1696)"/>
<path d="M141.056 121.769L147.004 125.322L160.284 116.904V110.625L141.056 121.769Z" fill="url(#paint41_linear_208_1696)"/>
<path d="M147.004 125.322L153.644 129.29L160.284 124.736V116.904L147.004 125.322Z" fill="url(#paint42_linear_208_1696)"/>
</g>
<path d="M152.572 121.148C148.353 118.698 141.506 118.698 137.287 121.148C133.068 123.597 133.102 127.53 137.321 129.98C141.54 132.429 148.388 132.429 152.607 129.98C156.826 127.53 156.791 123.597 152.572 121.148Z" fill="url(#paint43_linear_208_1696)"/>
<path d="M152.572 119.526C148.353 117.077 141.506 117.077 137.287 119.526C133.068 121.976 133.102 125.909 137.321 128.358C141.54 130.808 148.388 130.808 152.607 128.358C156.826 125.909 156.791 121.941 152.572 119.526Z" fill="url(#paint44_linear_208_1696)"/>
<path d="M144.999 129.842C142.163 129.842 139.534 129.221 137.529 128.048C135.592 126.944 134.52 125.46 134.52 123.908C134.52 122.39 135.558 120.906 137.494 119.802C139.465 118.664 142.128 118.008 144.964 118.008C147.8 118.008 150.428 118.629 152.434 119.802C154.37 120.906 155.443 122.39 155.443 123.942C155.443 125.46 154.405 126.944 152.468 128.048C150.463 129.186 147.834 129.842 144.999 129.842Z" fill="url(#paint45_linear_208_1696)"/>
<path d="M149.84 121.872L147.8 120.699L143.684 121.838L141.921 121.251L141.402 121.769L142.543 122.148L139.292 123.045L145.379 126.564L146.866 126.288L142.612 123.839L145.31 123.114L147.108 123.701L147.627 123.183L146.486 122.804L149.84 121.872Z" fill="url(#paint46_linear_208_1696)"/>
<mask id="mask0_208_1696" style="mask-type:luminance" maskUnits="userSpaceOnUse" x="141" y="97" width="20" height="38">
<path d="M158.935 106.865L143.339 97.895C142.509 97.412 141.437 98.033 141.437 98.999V123.322C141.437 123.632 141.471 123.943 141.575 124.219C141.782 124.84 142.232 125.392 142.82 125.737L158.624 134.845C159.35 135.259 160.25 134.741 160.25 133.913V113.489V109.177C160.284 108.211 159.765 107.314 158.935 106.865Z" fill="white"/>
</mask>
<g mask="url(#mask0_208_1696)">
<path d="M175.189 109.867C170.97 107.417 164.123 107.417 159.904 109.867C155.685 112.316 155.719 116.249 159.938 118.699C164.157 121.148 171.005 121.148 175.224 118.699C179.443 116.249 179.408 112.282 175.189 109.867Z" fill="url(#paint47_linear_208_1696)"/>
<path d="M175.189 108.211C170.97 105.761 164.123 105.761 159.904 108.211C155.685 110.66 155.719 114.593 159.938 117.043C164.157 119.492 171.005 119.492 175.224 117.043C179.443 114.628 179.408 110.66 175.189 108.211Z" fill="url(#paint48_linear_208_1696)"/>
<path d="M167.616 118.526C164.78 118.526 162.152 117.905 160.146 116.732C158.209 115.628 157.137 114.145 157.137 112.592C157.137 111.074 158.175 109.591 160.111 108.487C162.083 107.348 164.745 106.693 167.547 106.693C170.382 106.693 173.011 107.314 175.016 108.487C176.953 109.591 178.025 111.074 178.025 112.627C178.025 114.145 176.988 115.628 175.051 116.732C173.08 117.905 170.417 118.526 167.616 118.526Z" fill="url(#paint49_linear_208_1696)"/>
</g>
<path d="M127.604 128.324C122.97 125.668 119.2 127.807 119.165 133.12C119.165 138.433 122.9 144.919 127.534 147.61C132.169 150.266 135.938 148.127 135.973 142.814C135.973 137.467 132.238 130.981 127.604 128.324Z" fill="url(#paint50_linear_208_1696)"/>
<path d="M126.186 128.945C121.552 126.289 117.782 128.428 117.748 133.741C117.713 139.054 121.482 145.54 126.117 148.231C130.751 150.887 134.52 148.748 134.555 143.435C134.589 138.088 130.82 131.636 126.186 128.945Z" fill="url(#paint51_linear_208_1696)"/>
<path d="M129.921 149.024C128.814 149.024 127.604 148.644 126.324 147.92C121.794 145.298 118.093 138.95 118.128 133.74C118.128 130.29 119.788 128.151 122.451 128.151C123.557 128.151 124.802 128.531 126.047 129.255C130.578 131.877 134.278 138.225 134.243 143.435C134.209 146.885 132.549 149.024 129.921 149.024Z" fill="url(#paint52_linear_208_1696)"/>
<path d="M124.422 140.158V138.467L125.563 139.123C125.84 139.295 126.082 139.502 126.22 139.744C126.359 139.985 126.462 140.227 126.462 140.503C126.462 141.055 126.151 141.158 125.563 140.813L124.422 140.158ZM124.422 137.156V135.535L125.459 136.121C126.013 136.432 126.289 136.88 126.289 137.432C126.289 137.984 126.013 138.088 125.459 137.777L124.422 137.156ZM126.393 134.189L125.598 133.741V134.741L124.733 134.224V133.223L123.972 132.775V133.775L122.866 133.12L122.831 140.71L123.938 141.365V142.228L124.699 142.676V141.814L125.563 142.331V143.194L126.359 143.642V142.745C126.843 142.952 127.223 143.021 127.5 142.883C127.88 142.745 128.053 142.331 128.088 141.676C128.088 141.227 127.984 140.779 127.742 140.296C127.5 139.813 127.189 139.433 126.774 139.088C127.119 139.192 127.396 139.157 127.604 138.985C127.811 138.812 127.915 138.467 127.915 138.019C127.915 137.398 127.742 136.811 127.362 136.259C127.119 135.88 126.774 135.535 126.359 135.224L126.393 134.189Z" fill="url(#paint53_linear_208_1696)"/>
<path d="M121.24 157.235C117.021 154.785 110.174 154.785 105.955 157.235C101.736 159.684 101.77 163.617 105.989 166.067C110.209 168.516 117.056 168.516 121.275 166.067C125.494 163.617 125.459 159.684 121.24 157.235Z" fill="url(#paint54_linear_208_1696)"/>
<path d="M121.24 155.165C117.021 152.715 110.174 152.715 105.955 155.165C101.736 157.614 101.77 161.547 105.989 163.997C110.209 166.446 117.056 166.446 121.275 163.997C125.494 161.547 125.459 157.614 121.24 155.165Z" fill="url(#paint55_linear_208_1696)"/>
<path d="M121.24 153.543C117.021 151.094 110.174 151.094 105.955 153.543C101.736 155.993 101.77 159.926 105.989 162.375C110.209 164.825 117.056 164.825 121.275 162.375C125.494 159.926 125.459 155.958 121.24 153.543Z" fill="url(#paint56_linear_208_1696)"/>
<path d="M113.667 163.859C110.831 163.859 108.203 163.238 106.197 162.065C104.26 160.961 103.188 159.477 103.188 157.925C103.188 156.407 104.226 154.923 106.162 153.819C108.134 152.681 110.796 152.025 113.632 152.025C116.468 152.025 119.096 152.646 121.102 153.819C123.039 154.923 124.111 156.407 124.111 157.959C124.111 159.477 123.073 160.961 121.137 162.065C119.131 163.203 116.503 163.859 113.667 163.859Z" fill="url(#paint57_linear_208_1696)"/>
<path d="M108.825 154.923L115.154 156.2L113.978 157.925L110.969 158.58L108.825 154.923Z" fill="url(#paint58_linear_208_1696)"/>
<path d="M111.281 159.064L114.704 158.339L115.984 156.338L118.439 160.478L111.281 159.064Z" fill="url(#paint59_linear_208_1696)"/>
<path opacity="0.35" d="M130.578 154.958L122.382 150.3C121.69 149.886 121.69 148.886 122.382 148.472C123.039 148.093 123.869 148.093 124.526 148.472L132.722 153.13C133.413 153.544 133.413 154.544 132.722 154.958C132.065 155.303 131.269 155.303 130.578 154.958Z" fill="url(#paint60_linear_208_1696)"/>
<path opacity="0.5" d="M134.658 81.4385C134.451 81.3005 134.174 81.473 134.174 81.7145V87.9935C134.174 88.235 134.313 88.4765 134.52 88.6145L135.558 89.2355C135.8 89.3735 136.111 89.201 136.111 88.925V82.6805C136.111 82.439 135.973 82.232 135.765 82.094L134.658 81.4385Z" fill="#E388D3"/>
<path d="M134.486 81.1625C134.278 81.0245 134.001 81.197 134.001 81.4385V87.7175C134.001 87.959 134.14 88.2005 134.347 88.3385L135.523 89.0285C135.696 89.132 135.938 88.994 135.938 88.787V82.37C135.938 82.1285 135.8 81.9215 135.592 81.7835L134.486 81.1625Z" fill="url(#paint61_linear_208_1696)"/>
<path d="M180.792 193.184L212.919 174.692L221.046 179.384L188.919 197.876L180.792 193.184Z" fill="url(#paint62_linear_208_1696)"/>
<path d="M188.919 177.797L180.792 173.105L188.919 168.413L197.08 173.105L188.919 177.797Z" fill="url(#paint63_linear_208_1696)"/>
<path d="M188.919 177.797V197.876L197.08 193.184V173.105L188.919 177.797Z" fill="url(#paint64_linear_208_1696)"/>
<path d="M188.919 177.797L180.792 173.105V193.184L188.919 197.876V177.797Z" fill="url(#paint65_linear_208_1696)"/>
<path d="M178.959 171.932L170.832 167.24L178.959 162.583L187.086 167.24L178.959 171.932Z" fill="url(#paint66_linear_208_1696)"/>
<path d="M178.959 171.932V203.637L187.086 198.945V167.24L178.959 171.932Z" fill="url(#paint67_linear_208_1696)"/>
<path d="M178.959 171.932L170.832 167.24V198.945L178.959 203.637V171.932Z" fill="url(#paint68_linear_208_1696)"/>
<path d="M121.171 109.418V123.253C121.171 123.839 120.514 124.219 119.995 123.908L103.361 114.283C102.877 114.007 102.566 113.489 102.566 112.903V98.999C102.566 98.447 103.188 98.102 103.638 98.378L120.341 108.004C120.86 108.349 121.171 108.866 121.171 109.418Z" fill="url(#paint69_linear_208_1696)"/>
<path d="M120.549 109.625V123.46C120.549 124.046 119.892 124.426 119.373 124.115L102.739 114.49C102.254 114.214 101.943 113.696 101.943 113.11V99.275C101.943 98.723 102.566 98.378 103.015 98.654L119.719 108.28C120.272 108.556 120.549 109.073 120.549 109.625Z" fill="url(#paint70_linear_208_1696)"/>
<path opacity="0.82" d="M117.194 112.351L109.206 107.728" stroke="#97C5ED" stroke-width="1.4" stroke-miterlimit="10" stroke-linecap="round" stroke-linejoin="round"/>
<path opacity="0.82" d="M117.194 115.007L109.206 110.419" stroke="#97C5ED" stroke-width="1.4" stroke-miterlimit="10" stroke-linecap="round" stroke-linejoin="round"/>
<path opacity="0.82" d="M114.082 115.904L109.206 113.075" stroke="#97C5ED" stroke-width="1.4" stroke-miterlimit="10" stroke-linecap="round" stroke-linejoin="round"/>
<path d="M105.229 109.763V108.625L105.989 109.039C106.197 109.142 106.335 109.28 106.439 109.453C106.543 109.625 106.577 109.763 106.577 109.97C106.577 110.35 106.37 110.419 105.989 110.177L105.229 109.763ZM105.229 107.797V106.727L105.92 107.107C106.301 107.314 106.474 107.59 106.474 107.969C106.474 108.314 106.301 108.383 105.92 108.176L105.229 107.797ZM106.508 105.83L105.989 105.52V106.175L105.401 105.83V105.175L104.883 104.864V105.52L104.156 105.106V110.108L104.883 110.522V111.109L105.401 111.419V110.833L105.989 111.178V111.764L106.508 112.075V111.488C106.819 111.626 107.061 111.661 107.269 111.592C107.511 111.488 107.649 111.212 107.649 110.798C107.649 110.522 107.58 110.212 107.407 109.901C107.234 109.591 107.027 109.315 106.785 109.108C107.027 109.177 107.2 109.142 107.338 109.039C107.476 108.901 107.546 108.694 107.546 108.418C107.546 108.004 107.442 107.624 107.2 107.245C107.027 107.003 106.785 106.762 106.543 106.555L106.508 105.83Z" fill="url(#paint71_linear_208_1696)"/>
<path d="M121.171 91.478V105.313C121.171 105.899 120.514 106.279 119.995 105.968L103.361 96.3425C102.877 96.0665 102.566 95.549 102.566 94.9625V81.059C102.566 80.507 103.188 80.162 103.638 80.438L120.341 90.0635C120.86 90.374 121.171 90.8915 121.171 91.478Z" fill="url(#paint72_linear_208_1696)"/>
<path d="M120.549 91.6851V105.52C120.549 106.106 119.892 106.486 119.373 106.175L102.739 96.5496C102.254 96.2736 101.943 95.7561 101.943 95.1696V81.2661C101.943 80.7141 102.566 80.3691 103.015 80.6451L119.719 90.2705C120.272 90.581 120.549 91.0986 120.549 91.6851Z" fill="url(#paint73_linear_208_1696)"/>
<path d="M106.543 89.0285L105.332 88.3385L104.71 90.029L103.88 89.822L103.984 90.374L104.502 90.512L104.018 91.8575L107.58 93.9275L107.891 93.41L105.402 91.961L105.817 90.857L106.646 91.064L106.543 90.512L105.989 90.374L106.543 89.0285Z" fill="url(#paint74_linear_208_1696)"/>
<path opacity="0.5" d="M117.194 94.376L109.206 89.7875" stroke="#0660D7" stroke-width="1.4" stroke-miterlimit="10" stroke-linecap="round" stroke-linejoin="round"/>
<path opacity="0.5" d="M117.194 97.067L109.206 92.444" stroke="#0660D7" stroke-width="1.4" stroke-miterlimit="10" stroke-linecap="round" stroke-linejoin="round"/>
<path opacity="0.5" d="M114.082 97.9295L109.206 95.135" stroke="#0660D7" stroke-width="1.4" stroke-miterlimit="10" stroke-linecap="round" stroke-linejoin="round"/>
<path d="M95.2343 124.909L111.938 134.534C112.422 134.81 112.733 135.328 112.733 135.914V152.957C112.733 153.061 112.629 153.164 112.56 153.164C112.491 153.164 111.972 153.44 111.938 153.371L110.693 149.887L94.9576 140.813C94.4735 140.537 94.1622 140.02 94.1622 139.433V125.53C94.1622 124.978 94.7501 124.633 95.2343 124.909Z" fill="url(#paint75_linear_208_1696)"/>
<path d="M94.6118 125.15L111.315 134.775C111.799 135.051 112.111 135.569 112.111 136.155V153.198C112.111 153.405 111.834 153.475 111.73 153.302L110.07 150.128L94.3351 141.02C93.851 140.744 93.5397 140.227 93.5397 139.64V125.737C93.5397 125.219 94.1622 124.874 94.6118 125.15Z" fill="url(#paint76_linear_208_1696)"/>
<path d="M97.4822 131.015L96.0989 133.43L97.4822 134.914L98.8309 134.983L97.4822 131.015Z" fill="url(#paint77_linear_208_1696)"/>
<path d="M99.0038 135.534L97.4475 135.431L95.9259 133.74L97.4475 138.26L99.0038 135.534Z" fill="url(#paint78_linear_208_1696)"/>
<path opacity="0.5" d="M108.756 138.847L100.768 134.224" stroke="#0660D7" stroke-width="1.4" stroke-miterlimit="10" stroke-linecap="round" stroke-linejoin="round"/>
<path opacity="0.5" d="M108.756 141.503L100.768 136.915" stroke="#0660D7" stroke-width="1.4" stroke-miterlimit="10" stroke-linecap="round" stroke-linejoin="round"/>
<path opacity="0.5" d="M105.644 142.4L100.768 139.571" stroke="#0660D7" stroke-width="1.4" stroke-miterlimit="10" stroke-linecap="round" stroke-linejoin="round"/>
<path d="M241.173 153.578L227.928 145.85L205.276 158.891C202.717 158.96 200.192 159.581 198.221 160.719C194.002 163.169 194.037 167.102 198.256 169.551C202.475 172.001 209.322 172.001 213.541 169.551C213.818 169.379 214.095 169.206 214.337 169.034L241.173 153.578Z" fill="url(#paint79_linear_208_1696)"/>
<path d="M213.507 160.719C209.288 158.27 202.44 158.27 198.221 160.719C194.002 163.169 194.037 167.102 198.256 169.551C202.475 172.001 209.322 172.001 213.541 169.551C217.76 167.102 217.726 163.169 213.507 160.719Z" fill="url(#paint80_linear_208_1696)"/>
<path d="M213.507 159.098C209.288 156.648 202.44 156.648 198.221 159.098C194.002 161.547 194.037 165.48 198.256 167.93C202.475 170.379 209.322 170.379 213.541 167.93C217.76 165.48 217.726 161.513 213.507 159.098Z" fill="url(#paint81_linear_208_1696)"/>
<path d="M213.507 158.58C209.288 156.131 202.44 156.131 198.221 158.58C194.002 161.03 194.037 164.963 198.256 167.412C202.475 169.862 209.322 169.862 213.541 167.412C217.76 164.963 217.726 160.995 213.507 158.58Z" fill="url(#paint82_linear_208_1696)"/>
<path d="M213.507 156.925C209.288 154.475 202.44 154.475 198.221 156.925C194.002 159.374 194.037 163.307 198.256 165.757C202.475 168.206 209.322 168.206 213.541 165.757C217.76 163.307 217.726 159.374 213.507 156.925Z" fill="url(#paint83_linear_208_1696)"/>
<path d="M213.507 156.2C209.288 153.75 202.44 153.75 198.221 156.2C194.002 158.649 194.037 162.582 198.256 165.032C202.475 167.481 209.322 167.481 213.541 165.032C217.76 162.582 217.726 158.649 213.507 156.2Z" fill="url(#paint84_linear_208_1696)"/>
<path d="M213.507 154.578C209.288 152.129 202.44 152.129 198.221 154.578C194.002 157.028 194.037 160.961 198.256 163.41C202.475 165.86 209.322 165.86 213.541 163.41C217.76 160.961 217.726 156.993 213.507 154.578Z" fill="url(#paint85_linear_208_1696)"/>
<path d="M213.507 153.681C209.288 151.232 202.44 151.232 198.221 153.681C194.002 156.131 194.037 160.064 198.256 162.513C202.475 164.963 209.322 164.963 213.541 162.513C217.76 160.064 217.726 156.096 213.507 153.681Z" fill="url(#paint86_linear_208_1696)"/>
<path d="M213.507 152.025C209.288 149.576 202.44 149.576 198.221 152.025C194.002 154.475 194.037 158.408 198.256 160.857C202.475 163.307 209.322 163.307 213.541 160.857C217.76 158.408 217.726 154.475 213.507 152.025Z" fill="url(#paint87_linear_208_1696)"/>
<path d="M205.933 162.341C203.097 162.341 200.469 161.72 198.463 160.547C196.527 159.443 195.455 157.959 195.455 156.407C195.455 154.889 196.492 153.405 198.429 152.301C200.4 151.163 203.063 150.507 205.864 150.507C208.7 150.507 211.328 151.128 213.334 152.301C215.27 153.405 216.343 154.889 216.343 156.441C216.343 157.959 215.305 159.443 213.368 160.547C211.397 161.72 208.734 162.341 205.933 162.341Z" fill="url(#paint88_linear_208_1696)"/>
<path d="M201.092 153.164L207.386 154.44L206.244 156.165L203.236 156.821L201.092 153.164Z" fill="url(#paint89_linear_208_1696)"/>
<path d="M203.512 157.304L206.971 156.579L208.25 154.578L210.671 158.718L203.512 157.304Z" fill="url(#paint90_linear_208_1696)"/>
<g opacity="0.4">
<path d="M187.12 171.932L178.959 180.074V184.559L187.12 176.417V171.932Z" fill="url(#paint91_linear_208_1696)"/>
</g>
<g opacity="0.4">
<path d="M198.705 132.74L190.544 140.882V143.538L198.705 135.396V132.74Z" fill="url(#paint92_linear_208_1696)"/>
<path d="M198.705 136.984L190.544 145.126V154.303L198.705 146.161V136.984Z" fill="url(#paint93_linear_208_1696)"/>
</g>
<g opacity="0.4">
<path d="M91.5684 113.454L83.4415 121.562V124.218L91.5684 116.111V113.454Z" fill="url(#paint94_linear_208_1696)"/>
<path d="M91.603 117.698L83.4415 125.805V134.983L91.603 126.875V117.698Z" fill="url(#paint95_linear_208_1696)"/>
</g>
<g opacity="0.4">
<path d="M74.5884 165.688L66.4269 173.795V176.452L74.5884 168.344V165.688Z" fill="url(#paint96_linear_208_1696)"/>
</g>
<path d="M146.174 171.794V174.278L146.832 173.899V171.518L146.174 171.794Z" fill="url(#paint97_linear_208_1696)"/>
<path d="M148.699 170.483V172.829L149.322 172.449V170.172L148.699 170.483Z" fill="url(#paint98_linear_208_1696)"/>
<path d="M151.085 169.172V171.449L151.742 171.069V168.861L151.085 169.172Z" fill="url(#paint99_linear_208_1696)"/>
<path d="M146.589 171.794L157.76 178.245C158.693 178.797 159.247 179.763 159.247 180.833V191.666" stroke="url(#paint100_linear_208_1696)" stroke-width="1.4" stroke-miterlimit="10" stroke-linecap="round" stroke-linejoin="round"/>
<path d="M149.079 170.517L160.25 176.969C161.183 177.521 161.737 178.487 161.737 179.556V190.389" stroke="url(#paint101_linear_208_1696)" stroke-width="1.4" stroke-miterlimit="10" stroke-linecap="round" stroke-linejoin="round"/>
<path d="M151.5 169.137L162.67 175.589C163.604 176.141 164.157 177.107 164.157 178.176V189.009" stroke="url(#paint102_linear_208_1696)" stroke-width="1.4" stroke-miterlimit="10" stroke-linecap="round" stroke-linejoin="round"/>
</g>
<defs>
<filter id="filter0_f_208_1696" x="-15" y="-6" width="346" height="346" filterUnits="userSpaceOnUse" color-interpolation-filters="sRGB">
<feFlood flood-opacity="0" result="BackgroundImageFix"/>
<feBlend mode="normal" in="SourceGraphic" in2="BackgroundImageFix" result="shape"/>
<feGaussianBlur stdDeviation="54" result="effect1_foregroundBlur_208_1696"/>
</filter>
<linearGradient id="paint0_linear_208_1696" x1="74.2069" y1="153.783" x2="121.698" y2="153.783" gradientUnits="userSpaceOnUse">
<stop stop-color="#006CED"/>
<stop offset="0.33" stop-color="#4C95EC"/>
<stop offset="0.975" stop-color="#DCE4EB"/>
</linearGradient>
<linearGradient id="paint1_linear_208_1696" x1="186.098" y1="172.116" x2="207.531" y2="191.471" gradientUnits="userSpaceOnUse">
<stop offset="0.025" stop-color="#DCE4EB"/>
<stop offset="0.67" stop-color="#4C95EC"/>
<stop offset="1" stop-color="#006CED"/>
</linearGradient>
<linearGradient id="paint2_linear_208_1696" x1="100.514" y1="153.382" x2="87.6599" y2="164.99" gradientUnits="userSpaceOnUse">
<stop offset="0.025" stop-color="#DCE4EB"/>
<stop offset="0.67" stop-color="#4C95EC"/>
<stop offset="1" stop-color="#006CED"/>
</linearGradient>
<linearGradient id="paint3_linear_208_1696" x1="102.12" y1="140.786" x2="169.496" y2="201.631" gradientUnits="userSpaceOnUse">
<stop stop-color="#006CED"/>
<stop offset="0.33" stop-color="#4C95EC"/>
<stop offset="0.975" stop-color="#DCE4EB"/>
</linearGradient>
<linearGradient id="paint4_linear_208_1696" x1="65.2957" y1="181.112" x2="88.0193" y2="155.528" gradientUnits="userSpaceOnUse">
<stop offset="0.025" stop-color="#4591D7"/>
<stop offset="0.786" stop-color="#D6E6F6" stop-opacity="0.219"/>
<stop offset="1" stop-color="white" stop-opacity="0"/>
</linearGradient>
<linearGradient id="paint5_linear_208_1696" x1="96.1593" y1="187.412" x2="60.6719" y2="156.253" gradientUnits="userSpaceOnUse">
<stop offset="0.025" stop-color="#0043C6"/>
<stop offset="0.582" stop-color="#90ADE6"/>
<stop offset="1" stop-color="white"/>
</linearGradient>
<linearGradient id="paint6_linear_208_1696" x1="71.1412" y1="157.18" x2="70.1076" y2="177.551" gradientUnits="userSpaceOnUse">
<stop offset="0.025" stop-color="#0068D1"/>
<stop offset="0.697" stop-color="#9082D5"/>
<stop offset="1" stop-color="#D38ED7"/>
</linearGradient>
<linearGradient id="paint7_linear_208_1696" x1="53.132" y1="182.543" x2="96.6027" y2="121.849" gradientUnits="userSpaceOnUse">
<stop offset="0.025" stop-color="#DCE4EB"/>
<stop offset="0.67" stop-color="#4C95EC"/>
<stop offset="1" stop-color="#006CED"/>
</linearGradient>
<linearGradient id="paint8_linear_208_1696" x1="58.2938" y1="173.307" x2="74.5718" y2="173.307" gradientUnits="userSpaceOnUse">
<stop offset="0.025" stop-color="#0043C6"/>
<stop offset="0.582" stop-color="#90ADE6"/>
<stop offset="1" stop-color="white"/>
</linearGradient>
<linearGradient id="paint9_linear_208_1696" x1="76.7218" y1="150.022" x2="112.447" y2="109.8" gradientUnits="userSpaceOnUse">
<stop offset="0.025" stop-color="#4591D7"/>
<stop offset="0.786" stop-color="#D6E6F6" stop-opacity="0.219"/>
<stop offset="1" stop-color="white" stop-opacity="0"/>
</linearGradient>
<linearGradient id="paint10_linear_208_1696" x1="113.176" y1="130.241" x2="77.6886" y2="99.0829" gradientUnits="userSpaceOnUse">
<stop offset="0.025" stop-color="#0043C6"/>
<stop offset="0.582" stop-color="#90ADE6"/>
<stop offset="1" stop-color="white"/>
</linearGradient>
<linearGradient id="paint11_linear_208_1696" x1="44.9625" y1="72.3944" x2="96.9911" y2="133.889" gradientUnits="userSpaceOnUse">
<stop offset="0.025" stop-color="#0068D1"/>
<stop offset="0.697" stop-color="#9082D5"/>
<stop offset="1" stop-color="#D38ED7"/>
</linearGradient>
<linearGradient id="paint12_linear_208_1696" x1="79.3231" y1="122.839" x2="87.2461" y2="68.971" gradientUnits="userSpaceOnUse">
<stop offset="0.025" stop-color="#DCE4EB"/>
<stop offset="0.67" stop-color="#4C95EC"/>
<stop offset="1" stop-color="#006CED"/>
</linearGradient>
<linearGradient id="paint13_linear_208_1696" x1="75.3105" y1="135.953" x2="91.5885" y2="135.953" gradientUnits="userSpaceOnUse">
<stop offset="0.025" stop-color="#0043C6"/>
<stop offset="0.582" stop-color="#90ADE6"/>
<stop offset="1" stop-color="white"/>
</linearGradient>
<linearGradient id="paint14_linear_208_1696" x1="148.616" y1="170.595" x2="199.142" y2="89.1192" gradientUnits="userSpaceOnUse">
<stop offset="0.025" stop-color="#4591D7" stop-opacity="0.5"/>
<stop offset="0.768" stop-color="#D6E6F6" stop-opacity="0.11"/>
<stop offset="0.977" stop-color="white" stop-opacity="0"/>
</linearGradient>
<linearGradient id="paint15_linear_208_1696" x1="183.835" y1="163.924" x2="219.561" y2="123.702" gradientUnits="userSpaceOnUse">
<stop offset="0.025" stop-color="#4591D7"/>
<stop offset="0.736" stop-color="#D6E6F6" stop-opacity="0.219"/>
<stop offset="0.936" stop-color="white" stop-opacity="0"/>
</linearGradient>
<linearGradient id="paint16_linear_208_1696" x1="220.29" y1="155.754" x2="184.802" y2="124.596" gradientUnits="userSpaceOnUse">
<stop offset="0.025" stop-color="#0043C6"/>
<stop offset="0.582" stop-color="#90ADE6"/>
<stop offset="1" stop-color="white"/>
</linearGradient>
<linearGradient id="paint17_linear_208_1696" x1="187.14" y1="116.748" x2="197.349" y2="151.54" gradientUnits="userSpaceOnUse">
<stop offset="0.025" stop-color="#0068D1"/>
<stop offset="0.697" stop-color="#9082D5"/>
<stop offset="1" stop-color="#D38ED7"/>
</linearGradient>
<linearGradient id="paint18_linear_208_1696" x1="184.966" y1="152.497" x2="190.274" y2="116.409" gradientUnits="userSpaceOnUse">
<stop offset="0.025" stop-color="#DCE4EB"/>
<stop offset="0.67" stop-color="#4C95EC"/>
<stop offset="1" stop-color="#006CED"/>
</linearGradient>
<linearGradient id="paint19_linear_208_1696" x1="182.424" y1="149.854" x2="198.702" y2="149.854" gradientUnits="userSpaceOnUse">
<stop offset="0.025" stop-color="#0043C6"/>
<stop offset="0.582" stop-color="#90ADE6"/>
<stop offset="1" stop-color="white"/>
</linearGradient>
<linearGradient id="paint20_linear_208_1696" x1="230.221" y1="206.369" x2="107.57" y2="113.555" gradientUnits="userSpaceOnUse">
<stop offset="0.025" stop-color="#0068D1"/>
<stop offset="0.498" stop-color="#918FD7"/>
<stop offset="0.506" stop-color="#9390D7"/>
<stop offset="0.516" stop-color="#8C90D7"/>
<stop offset="0.545" stop-color="#8A90D7"/>
<stop offset="0.607" stop-color="#9890D7"/>
<stop offset="0.77" stop-color="#B88FD7"/>
<stop offset="0.907" stop-color="#CC8ED7"/>
<stop offset="1" stop-color="#D38ED7"/>
</linearGradient>
<linearGradient id="paint21_linear_208_1696" x1="116.919" y1="159.262" x2="203.356" y2="156.66" gradientUnits="userSpaceOnUse">
<stop stop-color="#D38ED7"/>
<stop offset="0.303" stop-color="#9082D5"/>
<stop offset="0.975" stop-color="#0068D1"/>
</linearGradient>
<linearGradient id="paint22_linear_208_1696" x1="153.413" y1="87.8979" x2="156.349" y2="82.7469" gradientUnits="userSpaceOnUse">
<stop stop-color="#D38ED7"/>
<stop offset="0.303" stop-color="#9082D5"/>
<stop offset="0.975" stop-color="#0068D1"/>
</linearGradient>
<linearGradient id="paint23_linear_208_1696" x1="104.668" y1="171.62" x2="101.435" y2="177.194" gradientUnits="userSpaceOnUse">
<stop stop-color="#D38ED7"/>
<stop offset="0.303" stop-color="#9082D5"/>
<stop offset="0.975" stop-color="#0068D1"/>
</linearGradient>
<linearGradient id="paint24_linear_208_1696" x1="142.714" y1="138.535" x2="196.976" y2="165.985" gradientUnits="userSpaceOnUse">
<stop offset="0.025" stop-color="#0043C6"/>
<stop offset="0.156" stop-color="#0446C7"/>
<stop offset="0.279" stop-color="#0F4EC9"/>
<stop offset="0.4" stop-color="#225CCE"/>
<stop offset="0.519" stop-color="#3D70D4"/>
<stop offset="0.637" stop-color="#608ADB"/>
<stop offset="0.753" stop-color="#8AA9E5"/>
<stop offset="0.87" stop-color="#BDCEF0"/>
<stop offset="0.983" stop-color="#F6F8FD"/>
<stop offset="1" stop-color="white"/>
</linearGradient>
<linearGradient id="paint25_linear_208_1696" x1="151.106" y1="126.965" x2="147.099" y2="136.294" gradientUnits="userSpaceOnUse">
<stop offset="0.025" stop-color="#4591D7"/>
<stop offset="0.786" stop-color="#D6E6F6" stop-opacity="0.219"/>
<stop offset="1" stop-color="white" stop-opacity="0"/>
</linearGradient>
<linearGradient id="paint26_linear_208_1696" x1="165.207" y1="146.284" x2="148.143" y2="107.67" gradientUnits="userSpaceOnUse">
<stop offset="0.025" stop-color="#0043C6"/>
<stop offset="0.156" stop-color="#0446C7"/>
<stop offset="0.279" stop-color="#0F4EC9"/>
<stop offset="0.4" stop-color="#225CCE"/>
<stop offset="0.519" stop-color="#3D70D4"/>
<stop offset="0.637" stop-color="#608ADB"/>
<stop offset="0.753" stop-color="#8AA9E5"/>
<stop offset="0.87" stop-color="#BDCEF0"/>
<stop offset="0.983" stop-color="#F6F8FD"/>
<stop offset="1" stop-color="white"/>
</linearGradient>
<linearGradient id="paint27_linear_208_1696" x1="159.868" y1="130.59" x2="205.181" y2="203.153" gradientUnits="userSpaceOnUse">
<stop offset="0.025" stop-color="#DCE4EB"/>
<stop offset="0.67" stop-color="#4C95EC"/>
<stop offset="1" stop-color="#006CED"/>
</linearGradient>
<linearGradient id="paint28_linear_208_1696" x1="164.81" y1="111.726" x2="147.902" y2="133.172" gradientUnits="userSpaceOnUse">
<stop offset="0.025" stop-color="#0043C6"/>
<stop offset="0.582" stop-color="#90ADE6"/>
<stop offset="1" stop-color="white"/>
</linearGradient>
<linearGradient id="paint29_linear_208_1696" x1="143.577" y1="94.9221" x2="143.577" y2="127.55" gradientUnits="userSpaceOnUse">
<stop offset="0.025" stop-color="#0043C6"/>
<stop offset="0.582" stop-color="#90ADE6"/>
<stop offset="1" stop-color="white"/>
</linearGradient>
<linearGradient id="paint30_linear_208_1696" x1="153.212" y1="115.483" x2="174.424" y2="149.452" gradientUnits="userSpaceOnUse">
<stop offset="0.025" stop-color="#0043C6"/>
<stop offset="0.156" stop-color="#0446C7"/>
<stop offset="0.279" stop-color="#0F4EC9"/>
<stop offset="0.4" stop-color="#225CCE"/>
<stop offset="0.519" stop-color="#3D70D4"/>
<stop offset="0.637" stop-color="#608ADB"/>
<stop offset="0.753" stop-color="#8AA9E5"/>
<stop offset="0.87" stop-color="#BDCEF0"/>
<stop offset="0.983" stop-color="#F6F8FD"/>
<stop offset="1" stop-color="white"/>
</linearGradient>
<linearGradient id="paint31_linear_208_1696" x1="149.065" y1="129.598" x2="152.001" y2="124.079" gradientUnits="userSpaceOnUse">
<stop offset="0.025" stop-color="#0068D1" stop-opacity="0.4"/>
<stop offset="0.697" stop-color="#9082D5" stop-opacity="0.124"/>
<stop offset="1" stop-color="#D38ED7" stop-opacity="0"/>
</linearGradient>
<linearGradient id="paint32_linear_208_1696" x1="149.033" y1="130.109" x2="152.131" y2="125.21" gradientUnits="userSpaceOnUse">
<stop offset="0.025" stop-color="#0068D1" stop-opacity="0.4"/>
<stop offset="0.697" stop-color="#9082D5" stop-opacity="0.124"/>
<stop offset="1" stop-color="#D38ED7" stop-opacity="0"/>
</linearGradient>
<linearGradient id="paint33_linear_208_1696" x1="152.277" y1="131.534" x2="145.6" y2="142.987" gradientUnits="userSpaceOnUse">
<stop offset="0.025" stop-color="#0068D1" stop-opacity="0.4"/>
<stop offset="0.697" stop-color="#9082D5" stop-opacity="0.124"/>
<stop offset="1" stop-color="#D38ED7" stop-opacity="0"/>
</linearGradient>
<linearGradient id="paint34_linear_208_1696" x1="147.99" y1="139.105" x2="141.727" y2="150.213" gradientUnits="userSpaceOnUse">
<stop offset="0.025" stop-color="#0068D1" stop-opacity="0.4"/>
<stop offset="0.697" stop-color="#9082D5" stop-opacity="0.124"/>
<stop offset="1" stop-color="#D38ED7" stop-opacity="0"/>
</linearGradient>
<linearGradient id="paint35_linear_208_1696" x1="168.668" y1="93.4466" x2="145.897" y2="61.9753" gradientUnits="userSpaceOnUse">
<stop offset="0.025" stop-color="#0043C6"/>
<stop offset="0.156" stop-color="#0446C7"/>
<stop offset="0.279" stop-color="#0F4EC9"/>
<stop offset="0.4" stop-color="#225CCE"/>
<stop offset="0.519" stop-color="#3D70D4"/>
<stop offset="0.637" stop-color="#608ADB"/>
<stop offset="0.753" stop-color="#8AA9E5"/>
<stop offset="0.87" stop-color="#BDCEF0"/>
<stop offset="0.983" stop-color="#F6F8FD"/>
<stop offset="1" stop-color="white"/>
</linearGradient>
<linearGradient id="paint36_linear_208_1696" x1="160.382" y1="66.7608" x2="147.531" y2="87.0019" gradientUnits="userSpaceOnUse">
<stop offset="0.025" stop-color="#0068D1"/>
<stop offset="0.346" stop-color="#5377D3"/>
<stop offset="0.636" stop-color="#9883D5"/>
<stop offset="0.844" stop-color="#C38BD7"/>
<stop offset="0.95" stop-color="#D38ED7"/>
</linearGradient>
<linearGradient id="paint37_linear_208_1696" x1="151.3" y1="72.3526" x2="150.653" y2="78.4384" gradientUnits="userSpaceOnUse">
<stop offset="0.025" stop-color="#4591D7"/>
<stop offset="0.786" stop-color="#D6E6F6" stop-opacity="0.219"/>
<stop offset="1" stop-color="white" stop-opacity="0"/>
</linearGradient>
<linearGradient id="paint38_linear_208_1696" x1="155.566" y1="75.895" x2="146.109" y2="68.5363" gradientUnits="userSpaceOnUse">
<stop offset="0.025" stop-color="#0043C6"/>
<stop offset="0.582" stop-color="#90ADE6"/>
<stop offset="1" stop-color="white"/>
</linearGradient>
<linearGradient id="paint39_linear_208_1696" x1="148.198" y1="69.7185" x2="154.279" y2="77.8893" gradientUnits="userSpaceOnUse">
<stop offset="0.025" stop-color="white"/>
<stop offset="1" stop-color="#83B8F6"/>
</linearGradient>
<linearGradient id="paint40_linear_208_1696" x1="144.703" y1="118.776" x2="159.155" y2="105.585" gradientUnits="userSpaceOnUse">
<stop offset="0.025" stop-color="white"/>
<stop offset="0.202" stop-color="#FBFDFF" stop-opacity="0.819"/>
<stop offset="0.377" stop-color="#EFF6FE" stop-opacity="0.639"/>
<stop offset="0.551" stop-color="#DBEBFC" stop-opacity="0.46"/>
<stop offset="0.726" stop-color="#BFDBFA" stop-opacity="0.281"/>
<stop offset="0.898" stop-color="#9CC6F8" stop-opacity="0.105"/>
<stop offset="1" stop-color="#83B8F6" stop-opacity="0"/>
</linearGradient>
<linearGradient id="paint41_linear_208_1696" x1="147.985" y1="121.777" x2="160.349" y2="110.492" gradientUnits="userSpaceOnUse">
<stop offset="0.025" stop-color="white"/>
<stop offset="1" stop-color="#83B8F6" stop-opacity="0"/>
</linearGradient>
<linearGradient id="paint42_linear_208_1696" x1="152.568" y1="126.014" x2="161.385" y2="117.967" gradientUnits="userSpaceOnUse">
<stop offset="0.025" stop-color="white"/>
<stop offset="1" stop-color="#83B8F6" stop-opacity="0"/>
</linearGradient>
<linearGradient id="paint43_linear_208_1696" x1="138.233" y1="138.254" x2="146.379" y2="122.83" gradientUnits="userSpaceOnUse">
<stop offset="0.025" stop-color="#0068D1"/>
<stop offset="0.697" stop-color="#9082D5"/>
<stop offset="1" stop-color="#D38ED7"/>
</linearGradient>
<linearGradient id="paint44_linear_208_1696" x1="144.782" y1="124.195" x2="152.027" y2="113.562" gradientUnits="userSpaceOnUse">
<stop stop-color="#83B8F6"/>
<stop offset="0.975" stop-color="white"/>
</linearGradient>
<linearGradient id="paint45_linear_208_1696" x1="144.79" y1="124.184" x2="151.721" y2="114.011" gradientUnits="userSpaceOnUse">
<stop offset="0.025" stop-color="white"/>
<stop offset="1" stop-color="#83B8F6"/>
</linearGradient>
<linearGradient id="paint46_linear_208_1696" x1="143.178" y1="112.854" x2="146.279" y2="133.831" gradientUnits="userSpaceOnUse">
<stop offset="0.025" stop-color="#0043C6"/>
<stop offset="0.582" stop-color="#90ADE6"/>
<stop offset="1" stop-color="white"/>
</linearGradient>
<linearGradient id="paint47_linear_208_1696" x1="160.426" y1="120.599" x2="165.607" y2="115.991" gradientUnits="userSpaceOnUse">
<stop offset="0.025" stop-color="#0068D1"/>
<stop offset="0.697" stop-color="#9082D5"/>
<stop offset="1" stop-color="#D38ED7"/>
</linearGradient>
<linearGradient id="paint48_linear_208_1696" x1="168.466" y1="100.09" x2="166.657" y2="125.468" gradientUnits="userSpaceOnUse">
<stop offset="0.025" stop-color="#0043C6"/>
<stop offset="0.582" stop-color="#90ADE6"/>
<stop offset="1" stop-color="white"/>
</linearGradient>
<linearGradient id="paint49_linear_208_1696" x1="168.274" y1="102.77" x2="166.565" y2="126.754" gradientUnits="userSpaceOnUse">
<stop offset="0.025" stop-color="#0043C6"/>
<stop offset="0.582" stop-color="#90ADE6"/>
<stop offset="1" stop-color="white"/>
</linearGradient>
<linearGradient id="paint50_linear_208_1696" x1="131.569" y1="147.035" x2="125.623" y2="133.473" gradientUnits="userSpaceOnUse">
<stop offset="0.025" stop-color="#0068D1"/>
<stop offset="0.697" stop-color="#9082D5"/>
<stop offset="1" stop-color="#D38ED7"/>
</linearGradient>
<linearGradient id="paint51_linear_208_1696" x1="126.367" y1="136.148" x2="124.989" y2="152.549" gradientUnits="userSpaceOnUse">
<stop stop-color="#83B8F6"/>
<stop offset="0.975" stop-color="white"/>
</linearGradient>
<linearGradient id="paint52_linear_208_1696" x1="126.361" y1="136.229" x2="125.028" y2="152.088" gradientUnits="userSpaceOnUse">
<stop offset="0.025" stop-color="white"/>
<stop offset="1" stop-color="#83B8F6"/>
</linearGradient>
<linearGradient id="paint53_linear_208_1696" x1="117.306" y1="124.693" x2="134.635" y2="155.155" gradientUnits="userSpaceOnUse">
<stop offset="0.025" stop-color="#0043C6"/>
<stop offset="0.582" stop-color="#90ADE6"/>
<stop offset="1" stop-color="white"/>
</linearGradient>
<linearGradient id="paint54_linear_208_1696" x1="123.089" y1="169.708" x2="101.242" y2="151.012" gradientUnits="userSpaceOnUse">
<stop offset="0.025" stop-color="#0068D1" stop-opacity="0.4"/>
<stop offset="0.697" stop-color="#9082D5" stop-opacity="0.124"/>
<stop offset="1" stop-color="#D38ED7" stop-opacity="0"/>
</linearGradient>
<linearGradient id="paint55_linear_208_1696" x1="119.34" y1="165.399" x2="110.968" y2="156.834" gradientUnits="userSpaceOnUse">
<stop offset="0.025" stop-color="#0068D1"/>
<stop offset="0.697" stop-color="#9082D5"/>
<stop offset="1" stop-color="#D38ED7"/>
</linearGradient>
<linearGradient id="paint56_linear_208_1696" x1="111.127" y1="155.41" x2="122.348" y2="166.83" gradientUnits="userSpaceOnUse">
<stop stop-color="#83B8F6"/>
<stop offset="0.975" stop-color="white"/>
</linearGradient>
<linearGradient id="paint57_linear_208_1696" x1="111.225" y1="155.509" x2="122.007" y2="166.483" gradientUnits="userSpaceOnUse">
<stop offset="0.025" stop-color="white"/>
<stop offset="1" stop-color="#83B8F6"/>
</linearGradient>
<linearGradient id="paint58_linear_208_1696" x1="110.14" y1="142.507" x2="115.135" y2="177.9" gradientUnits="userSpaceOnUse">
<stop offset="0.025" stop-color="#0043C6"/>
<stop offset="0.582" stop-color="#90ADE6"/>
<stop offset="1" stop-color="white"/>
</linearGradient>
<linearGradient id="paint59_linear_208_1696" x1="112.353" y1="142.194" x2="117.349" y2="177.587" gradientUnits="userSpaceOnUse">
<stop offset="0.025" stop-color="#0043C6"/>
<stop offset="0.582" stop-color="#90ADE6"/>
<stop offset="1" stop-color="white"/>
</linearGradient>
<linearGradient id="paint60_linear_208_1696" x1="137.52" y1="149.955" x2="115.785" y2="153.792" gradientUnits="userSpaceOnUse">
<stop offset="0.025" stop-color="#0068D1" stop-opacity="0.4"/>
<stop offset="0.697" stop-color="#9082D5" stop-opacity="0.124"/>
<stop offset="1" stop-color="#D38ED7" stop-opacity="0"/>
</linearGradient>
<linearGradient id="paint61_linear_208_1696" x1="128.042" y1="106.304" x2="138.703" y2="73.6047" gradientUnits="userSpaceOnUse">
<stop offset="0.025" stop-color="#0068D1"/>
<stop offset="0.697" stop-color="#9082D5"/>
<stop offset="1" stop-color="#D38ED7"/>
</linearGradient>
<linearGradient id="paint62_linear_208_1696" x1="182.202" y1="207.263" x2="217.927" y2="167.04" gradientUnits="userSpaceOnUse">
<stop offset="0.025" stop-color="#4591D7"/>
<stop offset="0.786" stop-color="#D6E6F6" stop-opacity="0.219"/>
<stop offset="1" stop-color="white" stop-opacity="0"/>
</linearGradient>
<linearGradient id="paint63_linear_208_1696" x1="218.656" y1="199.093" x2="183.169" y2="167.935" gradientUnits="userSpaceOnUse">
<stop offset="0.025" stop-color="#0043C6"/>
<stop offset="0.582" stop-color="#90ADE6"/>
<stop offset="1" stop-color="white"/>
</linearGradient>
<linearGradient id="paint64_linear_208_1696" x1="185.507" y1="160.086" x2="195.716" y2="194.879" gradientUnits="userSpaceOnUse">
<stop offset="0.025" stop-color="#0068D1"/>
<stop offset="0.697" stop-color="#9082D5"/>
<stop offset="1" stop-color="#D38ED7"/>
</linearGradient>
<linearGradient id="paint65_linear_208_1696" x1="183.333" y1="195.836" x2="188.641" y2="159.748" gradientUnits="userSpaceOnUse">
<stop offset="0.025" stop-color="#DCE4EB"/>
<stop offset="0.67" stop-color="#4C95EC"/>
<stop offset="1" stop-color="#006CED"/>
</linearGradient>
<linearGradient id="paint66_linear_208_1696" x1="208.687" y1="193.23" x2="173.199" y2="162.071" gradientUnits="userSpaceOnUse">
<stop offset="0.025" stop-color="#0043C6"/>
<stop offset="0.582" stop-color="#90ADE6"/>
<stop offset="1" stop-color="white"/>
</linearGradient>
<linearGradient id="paint67_linear_208_1696" x1="171.649" y1="146.842" x2="187.155" y2="199.688" gradientUnits="userSpaceOnUse">
<stop offset="0.025" stop-color="#0068D1"/>
<stop offset="0.697" stop-color="#9082D5"/>
<stop offset="1" stop-color="#D38ED7"/>
</linearGradient>
<linearGradient id="paint68_linear_208_1696" x1="172.61" y1="200.871" x2="180.533" y2="147.004" gradientUnits="userSpaceOnUse">
<stop offset="0.025" stop-color="#DCE4EB"/>
<stop offset="0.67" stop-color="#4C95EC"/>
<stop offset="1" stop-color="#006CED"/>
</linearGradient>
<linearGradient id="paint69_linear_208_1696" x1="114.482" y1="117.046" x2="91.8604" y2="65.8624" gradientUnits="userSpaceOnUse">
<stop offset="0.025" stop-color="#0043C6"/>
<stop offset="1" stop-color="#0C6ADD"/>
</linearGradient>
<linearGradient id="paint70_linear_208_1696" x1="130.225" y1="131.905" x2="109.858" y2="109.76" gradientUnits="userSpaceOnUse">
<stop offset="0.025" stop-color="#0043C6"/>
<stop offset="1" stop-color="#0C6ADD"/>
</linearGradient>
<linearGradient id="paint71_linear_208_1696" x1="117.151" y1="126.273" x2="103.182" y2="104.555" gradientUnits="userSpaceOnUse">
<stop offset="0.025" stop-color="#0043C6"/>
<stop offset="0.582" stop-color="#90ADE6"/>
<stop offset="1" stop-color="white"/>
</linearGradient>
<linearGradient id="paint72_linear_208_1696" x1="104.228" y1="69.349" x2="113.274" y2="97.7164" gradientUnits="userSpaceOnUse">
<stop offset="0.025" stop-color="white"/>
<stop offset="1" stop-color="#83B8F6"/>
</linearGradient>
<linearGradient id="paint73_linear_208_1696" x1="107.377" y1="83.4295" x2="141.498" y2="171.528" gradientUnits="userSpaceOnUse">
<stop offset="0.025" stop-color="white"/>
<stop offset="1" stop-color="#83B8F6"/>
</linearGradient>
<linearGradient id="paint74_linear_208_1696" x1="102.735" y1="84.7453" x2="108.787" y2="98.2853" gradientUnits="userSpaceOnUse">
<stop offset="0.025" stop-color="#DCE4EB"/>
<stop offset="0.67" stop-color="#4C95EC"/>
<stop offset="1" stop-color="#006CED"/>
</linearGradient>
<linearGradient id="paint75_linear_208_1696" x1="92.8661" y1="121.322" x2="106.383" y2="142.326" gradientUnits="userSpaceOnUse">
<stop offset="0.025" stop-color="white"/>
<stop offset="1" stop-color="#83B8F6"/>
</linearGradient>
<linearGradient id="paint76_linear_208_1696" x1="102.87" y1="137.928" x2="143.335" y2="182.292" gradientUnits="userSpaceOnUse">
<stop offset="0.025" stop-color="white"/>
<stop offset="1" stop-color="#83B8F6"/>
</linearGradient>
<linearGradient id="paint77_linear_208_1696" x1="94.2788" y1="128.3" x2="103.658" y2="143.032" gradientUnits="userSpaceOnUse">
<stop offset="0.025" stop-color="#0043C6"/>
<stop offset="0.582" stop-color="#90ADE6"/>
<stop offset="1" stop-color="white"/>
</linearGradient>
<linearGradient id="paint78_linear_208_1696" x1="93.179" y1="128.999" x2="102.558" y2="143.732" gradientUnits="userSpaceOnUse">
<stop offset="0.025" stop-color="#0043C6"/>
<stop offset="0.582" stop-color="#90ADE6"/>
<stop offset="1" stop-color="white"/>
</linearGradient>
<linearGradient id="paint79_linear_208_1696" x1="201.053" y1="173.652" x2="234.329" y2="143.854" gradientUnits="userSpaceOnUse">
<stop offset="0.025" stop-color="#4591D7"/>
<stop offset="0.715" stop-color="#D6E6F6" stop-opacity="0.219"/>
<stop offset="0.909" stop-color="white" stop-opacity="0"/>
</linearGradient>
<linearGradient id="paint80_linear_208_1696" x1="199.431" y1="165.271" x2="219.158" y2="164.88" gradientUnits="userSpaceOnUse">
<stop stop-color="#D38ED7"/>
<stop offset="0.303" stop-color="#9082D5"/>
<stop offset="0.975" stop-color="#0068D1"/>
</linearGradient>
<linearGradient id="paint81_linear_208_1696" x1="205.705" y1="163.77" x2="212.949" y2="153.136" gradientUnits="userSpaceOnUse">
<stop offset="0.025" stop-color="white"/>
<stop offset="1" stop-color="#83B8F6"/>
</linearGradient>
<linearGradient id="paint82_linear_208_1696" x1="199.388" y1="163.107" x2="219.115" y2="162.716" gradientUnits="userSpaceOnUse">
<stop stop-color="#D38ED7"/>
<stop offset="0.303" stop-color="#9082D5"/>
<stop offset="0.975" stop-color="#0068D1"/>
</linearGradient>
<linearGradient id="paint83_linear_208_1696" x1="205.705" y1="161.605" x2="212.949" y2="150.972" gradientUnits="userSpaceOnUse">
<stop offset="0.025" stop-color="white"/>
<stop offset="1" stop-color="#83B8F6"/>
</linearGradient>
<linearGradient id="paint84_linear_208_1696" x1="199.341" y1="160.75" x2="219.069" y2="160.359" gradientUnits="userSpaceOnUse">
<stop stop-color="#D38ED7"/>
<stop offset="0.303" stop-color="#9082D5"/>
<stop offset="0.975" stop-color="#0068D1"/>
</linearGradient>
<linearGradient id="paint85_linear_208_1696" x1="205.705" y1="159.247" x2="212.949" y2="148.614" gradientUnits="userSpaceOnUse">
<stop offset="0.025" stop-color="white"/>
<stop offset="1" stop-color="#83B8F6"/>
</linearGradient>
<linearGradient id="paint86_linear_208_1696" x1="199.291" y1="158.212" x2="219.018" y2="157.822" gradientUnits="userSpaceOnUse">
<stop stop-color="#D38ED7"/>
<stop offset="0.303" stop-color="#9082D5"/>
<stop offset="0.975" stop-color="#0068D1"/>
</linearGradient>
<linearGradient id="paint87_linear_208_1696" x1="220.174" y1="160.813" x2="193.359" y2="152.571" gradientUnits="userSpaceOnUse">
<stop stop-color="#83B8F6"/>
<stop offset="0.975" stop-color="white"/>
</linearGradient>
<linearGradient id="paint88_linear_208_1696" x1="204.961" y1="155.698" x2="222.26" y2="169.703" gradientUnits="userSpaceOnUse">
<stop offset="0.025" stop-color="white"/>
<stop offset="1" stop-color="#83B8F6"/>
</linearGradient>
<linearGradient id="paint89_linear_208_1696" x1="202.395" y1="140.747" x2="207.39" y2="176.14" gradientUnits="userSpaceOnUse">
<stop offset="0.025" stop-color="#0043C6"/>
<stop offset="0.582" stop-color="#90ADE6"/>
<stop offset="1" stop-color="white"/>
</linearGradient>
<linearGradient id="paint90_linear_208_1696" x1="204.609" y1="140.434" x2="209.603" y2="175.828" gradientUnits="userSpaceOnUse">
<stop offset="0.025" stop-color="#0043C6"/>
<stop offset="0.582" stop-color="#90ADE6"/>
<stop offset="1" stop-color="white"/>
</linearGradient>
<linearGradient id="paint91_linear_208_1696" x1="178.549" y1="162.896" x2="184.689" y2="184.041" gradientUnits="userSpaceOnUse">
<stop offset="0.025" stop-color="white"/>
<stop offset="1" stop-color="#83B8F6" stop-opacity="0"/>
</linearGradient>
<linearGradient id="paint92_linear_208_1696" x1="190.954" y1="125.544" x2="195.992" y2="142.894" gradientUnits="userSpaceOnUse">
<stop offset="0.025" stop-color="white"/>
<stop offset="1" stop-color="#83B8F6" stop-opacity="0"/>
</linearGradient>
<linearGradient id="paint93_linear_208_1696" x1="188.104" y1="123.261" x2="197.05" y2="154.072" gradientUnits="userSpaceOnUse">
<stop offset="0.025" stop-color="white"/>
<stop offset="1" stop-color="#83B8F6" stop-opacity="0"/>
</linearGradient>
<linearGradient id="paint94_linear_208_1696" x1="83.8361" y1="106.244" x2="88.8733" y2="123.594" gradientUnits="userSpaceOnUse">
<stop offset="0.025" stop-color="white"/>
<stop offset="1" stop-color="#83B8F6" stop-opacity="0"/>
</linearGradient>
<linearGradient id="paint95_linear_208_1696" x1="80.9862" y1="103.96" x2="89.9319" y2="134.771" gradientUnits="userSpaceOnUse">
<stop offset="0.025" stop-color="white"/>
<stop offset="1" stop-color="#83B8F6" stop-opacity="0"/>
</linearGradient>
<linearGradient id="paint96_linear_208_1696" x1="66.8239" y1="158.47" x2="71.8614" y2="175.819" gradientUnits="userSpaceOnUse">
<stop offset="0.025" stop-color="white"/>
<stop offset="1" stop-color="#83B8F6" stop-opacity="0"/>
</linearGradient>
<linearGradient id="paint97_linear_208_1696" x1="146.407" y1="172.217" x2="146.759" y2="174.977" gradientUnits="userSpaceOnUse">
<stop offset="0.025" stop-color="#0068D1" stop-opacity="0.4"/>
<stop offset="0.697" stop-color="#9082D5" stop-opacity="0.124"/>
<stop offset="1" stop-color="#D38ED7" stop-opacity="0"/>
</linearGradient>
<linearGradient id="paint98_linear_208_1696" x1="148.929" y1="170.864" x2="149.265" y2="173.496" gradientUnits="userSpaceOnUse">
<stop offset="0.025" stop-color="#0068D1" stop-opacity="0.4"/>
<stop offset="0.697" stop-color="#9082D5" stop-opacity="0.124"/>
<stop offset="1" stop-color="#D38ED7" stop-opacity="0"/>
</linearGradient>
<linearGradient id="paint99_linear_208_1696" x1="151.332" y1="169.527" x2="151.659" y2="172.09" gradientUnits="userSpaceOnUse">
<stop offset="0.025" stop-color="#0068D1" stop-opacity="0.4"/>
<stop offset="0.697" stop-color="#9082D5" stop-opacity="0.124"/>
<stop offset="1" stop-color="#D38ED7" stop-opacity="0"/>
</linearGradient>
<linearGradient id="paint100_linear_208_1696" x1="146.342" y1="181.743" x2="159.503" y2="181.743" gradientUnits="userSpaceOnUse">
<stop stop-color="#006CED"/>
<stop offset="0.336" stop-color="#4C95EC"/>
<stop offset="0.992" stop-color="#DCE4EB"/>
</linearGradient>
<linearGradient id="paint101_linear_208_1696" x1="148.852" y1="180.441" x2="162.013" y2="180.441" gradientUnits="userSpaceOnUse">
<stop stop-color="#006CED"/>
<stop offset="0.336" stop-color="#4C95EC"/>
<stop offset="0.992" stop-color="#DCE4EB"/>
</linearGradient>
<linearGradient id="paint102_linear_208_1696" x1="151.246" y1="179.061" x2="164.408" y2="179.061" gradientUnits="userSpaceOnUse">
<stop stop-color="#006CED"/>
<stop offset="0.336" stop-color="#4C95EC"/>
<stop offset="0.992" stop-color="#DCE4EB"/>
</linearGradient>
<clipPath id="clip0_208_1696">
<path d="M0 0H210V167C210 171.418 206.418 175 202 175H0V0Z" fill="white"/>
</clipPath>
<clipPath id="clip1_208_1696">
<path d="M38 32H210V167C210 171.418 206.418 175 202 175H38V32Z" fill="white"/>
</clipPath>
</defs>
</svg>
