<svg width="24" height="24" viewBox="0 0 24 24" fill="none" xmlns="http://www.w3.org/2000/svg">
<path d="M16.0254 20.5708L16.0257 17.3571C16.0259 15.5819 14.5868 14.1427 12.8116 14.1427H5.61442C3.83949 14.1427 2.40056 15.5815 2.40036 17.3564L2.4 20.5708M21.5997 20.571L21.6 17.3572C21.6002 15.5821 20.1611 14.1429 18.3859 14.1429M15.4063 4.06061C16.1956 4.64624 16.7072 5.5851 16.7072 6.64343C16.7072 7.70176 16.1956 8.64061 15.4063 9.22625M12.4938 6.64325C12.4938 8.41833 11.0548 9.85731 9.27974 9.85731C7.50467 9.85731 6.06569 8.41833 6.06569 6.64325C6.06569 4.86818 7.50467 3.4292 9.27974 3.4292C11.0548 3.4292 12.4938 4.86818 12.4938 6.64325Z" stroke="white" stroke-width="2" stroke-linecap="round" stroke-linejoin="round"/>
</svg>
