<svg width="20" height="20" viewBox="0 0 20 20" fill="none" xmlns="http://www.w3.org/2000/svg">
<path fill-rule="evenodd" clip-rule="evenodd" d="M2.43011 2.92084C2.91786 2.43715 3.57792 2.16666 4.26473 2.16666H10.4412C11.128 2.16666 11.7881 2.43715 12.2758 2.92084C12.7638 3.40476 13.0392 4.06259 13.0392 4.74999V6.49999C13.0392 6.96023 12.6661 7.33332 12.2059 7.33332C11.7457 7.33332 11.3726 6.96023 11.3726 6.49999V4.74999C11.3726 4.50914 11.2762 4.27672 11.1022 4.10427C10.9281 3.93158 10.6905 3.83332 10.4412 3.83332H4.26473C4.01547 3.83332 3.77782 3.93158 3.60368 4.10427C3.42977 4.27672 3.33335 4.50914 3.33335 4.74999V15.25C3.33335 15.4908 3.42977 15.7233 3.60368 15.8957C3.77782 16.0684 4.01547 16.1667 4.26473 16.1667H10.4412C10.6905 16.1667 10.9281 16.0684 11.1022 15.8957C11.2762 15.7233 11.3726 15.4908 11.3726 15.25V13.5C11.3726 13.0398 11.7457 12.6667 12.2059 12.6667C12.6661 12.6667 13.0392 13.0398 13.0392 13.5V15.25C13.0392 15.9374 12.7638 16.5952 12.2758 17.0791C11.7881 17.5628 11.128 17.8333 10.4412 17.8333H4.26473C3.57792 17.8333 2.91786 17.5628 2.43011 17.0791C1.94212 16.5952 1.66669 15.9374 1.66669 15.25V4.74999C1.66669 4.06259 1.94212 3.40476 2.43011 2.92084ZM14.2612 6.7882C14.5853 6.46141 15.113 6.4592 15.4397 6.78327L18.0868 9.40827C18.2446 9.56475 18.3334 9.77777 18.3334 9.99999C18.3334 10.2222 18.2446 10.4352 18.0868 10.5917L15.4397 13.2167C15.113 13.5408 14.5853 13.5386 14.2612 13.2118C13.9372 12.885 13.9394 12.3573 14.2662 12.0333L15.4762 10.8333H6.91179C6.45155 10.8333 6.07845 10.4602 6.07845 9.99999C6.07845 9.53975 6.45155 9.16666 6.91179 9.16666H15.4762L14.2662 7.96671C13.9394 7.64263 13.9372 7.115 14.2612 6.7882Z" fill="#4799CF"/>
</svg>
